<svg width="48" height="48" viewBox="0 0 48 48" fill="none" xmlns="http://www.w3.org/2000/svg">
<g opacity="0.4">
<path opacity="0.4" d="M43.5 42.375H38.2697V47.25H43.5V42.375Z" fill="url(#paint0_radial)"/>
<path opacity="0.4" d="M3.74999 47.25H8.98026V42.375H3.74999V47.25Z" fill="url(#paint1_radial)"/>
<path opacity="0.4" d="M38.2697 42.375H8.98026V47.25H38.2697V42.375Z" fill="url(#paint2_linear)"/>
</g>
<path d="M37 35C37 33.8954 37.8954 33 39 33H40C41.1046 33 42 33.8954 42 35V41C42 42.1046 41.1046 43 40 43H39C37.8954 43 37 42.1046 37 41V35Z" fill="black" fill-opacity="0.15"/>
<path d="M40 32.5H39C37.6193 32.5 36.5 33.6193 36.5 35V41C36.5 42.3807 37.6193 43.5 39 43.5H40C41.3807 43.5 42.5 42.3807 42.5 41V35C42.5 33.6193 41.3807 32.5 40 32.5Z" stroke="black" stroke-opacity="0.07"/>
<path d="M37 35C37 33.8954 37.8954 33 39 33H40C41.1046 33 42 33.8954 42 35V41C42 42.1046 41.1046 43 40 43H39C37.8954 43 37 42.1046 37 41V35Z" fill="#A56DE2"/>
<path d="M39 33.5H40C40.8284 33.5 41.5 34.1716 41.5 35V41C41.5 41.8284 40.8284 42.5 40 42.5H39C38.1716 42.5 37.5 41.8284 37.5 41V35C37.5 34.1716 38.1716 33.5 39 33.5Z" stroke="#5B3C7C" stroke-opacity="0.5"/>
<path opacity="0.5" d="M39 34.5H40C40.2761 34.5 40.5 34.7239 40.5 35V41C40.5 41.2761 40.2761 41.5 40 41.5H39C38.7239 41.5 38.5 41.2761 38.5 41V35C38.5 34.7239 38.7239 34.5 39 34.5Z" stroke="url(#paint3_linear)" stroke-linecap="round" stroke-linejoin="round"/>
<path d="M37.5 26.4375C37.5 25.5055 38.2555 24.75 39.1875 24.75V24.75C40.1195 24.75 40.875 25.5055 40.875 26.4375V33.1875C40.875 34.1195 40.1195 34.875 39.1875 34.875V34.875C38.2555 34.875 37.5 34.1195 37.5 33.1875V26.4375Z" fill="black" fill-opacity="0.15"/>
<path d="M37 27C37 25.8954 37.8954 25 39 25H40C41.1046 25 42 25.8954 42 27V32C42 33.1046 41.1046 34 40 34H39C37.8954 34 37 33.1046 37 32V27Z" fill="black" fill-opacity="0.15"/>
<path d="M40 24.5H39C37.6193 24.5 36.5 25.6193 36.5 27V32C36.5 33.3807 37.6193 34.5 39 34.5H40C41.3807 34.5 42.5 33.3807 42.5 32V27C42.5 25.6193 41.3807 24.5 40 24.5Z" stroke="black" stroke-opacity="0.07"/>
<path d="M37 26C37 24.8954 37.8954 24 39 24H40C41.1046 24 42 24.8954 42 26V32C42 33.1046 41.1046 34 40 34H39C37.8954 34 37 33.1046 37 32V26Z" fill="#F0DB4F"/>
<path d="M39 24.5H40C40.8284 24.5 41.5 25.1716 41.5 26V32C41.5 32.8284 40.8284 33.5 40 33.5H39C38.1716 33.5 37.5 32.8284 37.5 32V26C37.5 25.1716 38.1716 24.5 39 24.5Z" stroke="#A59738" stroke-opacity="0.5"/>
<path opacity="0.5" d="M39 26.5H40C40.2761 26.5 40.5 26.7239 40.5 27V32C40.5 32.2761 40.2761 32.5 40 32.5H39C38.7239 32.5 38.5 32.2761 38.5 32V27C38.5 26.7239 38.7239 26.5 39 26.5Z" stroke="url(#paint4_linear)" stroke-linecap="round" stroke-linejoin="round"/>
<path d="M37.5 17.8125C37.5 16.8805 38.2555 16.125 39.1875 16.125V16.125C40.1195 16.125 40.875 16.8805 40.875 17.8125V24.5625C40.875 25.4945 40.1195 26.25 39.1875 26.25V26.25C38.2555 26.25 37.5 25.4945 37.5 24.5625V17.8125Z" fill="black" fill-opacity="0.15"/>
<path d="M37 18C37 16.8954 37.8954 16 39 16H40C41.1046 16 42 16.8954 42 18V24C42 25.1046 41.1046 26 40 26H39C37.8954 26 37 25.1046 37 24V18Z" fill="black" fill-opacity="0.15"/>
<path d="M40 15.5H39C37.6193 15.5 36.5 16.6193 36.5 18V24C36.5 25.3807 37.6193 26.5 39 26.5H40C41.3807 26.5 42.5 25.3807 42.5 24V18C42.5 16.6193 41.3807 15.5 40 15.5Z" stroke="black" stroke-opacity="0.07"/>
<path d="M37 18C37 16.8954 37.8954 16 39 16H40C41.1046 16 42 16.8954 42 18V23C42 24.1046 41.1046 25 40 25H39C37.8954 25 37 24.1046 37 23V18Z" fill="#4F98D2"/>
<path d="M39 16.5H40C40.8284 16.5 41.5 17.1716 41.5 18V23C41.5 23.8284 40.8284 24.5 40 24.5H39C38.1716 24.5 37.5 23.8284 37.5 23V18C37.5 17.1716 38.1716 16.5 39 16.5Z" stroke="#2E597C" stroke-opacity="0.5"/>
<path opacity="0.5" d="M39 17.5H40C40.2761 17.5 40.5 17.7239 40.5 18V23C40.5 23.2761 40.2761 23.5 40 23.5H39C38.7239 23.5 38.5 23.2761 38.5 23V18C38.5 17.7239 38.7239 17.5 39 17.5Z" stroke="url(#paint5_linear)" stroke-linecap="round" stroke-linejoin="round"/>
<path d="M37.5 7.5H38.875C39.9796 7.5 40.875 8.39543 40.875 9.5V15.625C40.875 16.7296 39.9796 17.625 38.875 17.625H37.5V7.5Z" fill="black" fill-opacity="0.15"/>
<path d="M37 7H40C41.1046 7 42 7.89543 42 9V15C42 16.1046 41.1046 17 40 17H37V7Z" fill="black" fill-opacity="0.15"/>
<path d="M37 6.5H36.5V7V17V17.5H37H40C41.3807 17.5 42.5 16.3807 42.5 15V9C42.5 7.61929 41.3807 6.5 40 6.5H37Z" stroke="black" stroke-opacity="0.07"/>
<path d="M37 7H40C41.1046 7 42 7.89543 42 9V15C42 16.1046 41.1046 17 40 17H37V7Z" fill="#403757"/>
<path d="M37.5 7.5H40C40.8284 7.5 41.5 8.17157 41.5 9V15C41.5 15.8284 40.8284 16.5 40 16.5H37.5V7.5Z" stroke="#231E2F" stroke-opacity="0.5"/>
<path opacity="0.5" d="M38.5 8.5H40C40.2761 8.5 40.5 8.72386 40.5 9V15C40.5 15.2761 40.2761 15.5 40 15.5H38.5V8.5Z" stroke="url(#paint6_linear)" stroke-linecap="round" stroke-linejoin="round"/>
<mask id="path-27-outside-1" maskUnits="userSpaceOnUse" x="9" y="1" width="29" height="5" fill="black">
<rect fill="white" x="9" y="1" width="29" height="5"/>
<path d="M37 5C36.7458 4.10655 36.0308 2.8521 35.8904 2H10L10.8933 4.7041"/>
</mask>
<path d="M37 5C36.7458 4.10655 36.0308 2.8521 35.8904 2H10L10.8933 4.7041" fill="url(#paint7_linear)"/>
<path d="M35.8904 2L36.8771 1.83741C36.7975 1.35439 36.3799 1 35.8904 1V2ZM10 2V1C9.67903 1 9.37757 1.15407 9.18954 1.4142C9.00152 1.67434 8.94979 2.00891 9.05047 2.31368L10 2ZM37.9618 4.72632C37.8121 4.20029 37.5325 3.58208 37.3216 3.09035C37.084 2.53636 36.9241 2.12255 36.8771 1.83741L34.9037 2.16259C34.9971 2.72955 35.2649 3.36902 35.4835 3.87864C35.7287 4.45052 35.9336 4.90626 36.0382 5.27368L37.9618 4.72632ZM35.8904 1H10V3H35.8904V1ZM9.05047 2.31368L9.9438 5.01778L11.8428 4.39041L10.9495 1.68632L9.05047 2.31368Z" fill="url(#paint8_linear)" mask="url(#path-27-outside-1)"/>
<mask id="path-29-inside-2" fill="white">
<path d="M11 6H7.8C7.34332 6 7 5.94708 7 5.87805V2.17553C7 1.29559 7.19815 1 7.78364 1H11"/>
</mask>
<path d="M11 6H7.8C7.34332 6 7 5.94708 7 5.87805V2.17553C7 1.29559 7.19815 1 7.78364 1H11" fill="url(#paint9_linear)"/>
<path d="M11 7C11.5523 7 12 6.55228 12 6C12 5.44772 11.5523 5 11 5V7ZM11 2C11.5523 2 12 1.55228 12 1C12 0.447715 11.5523 5.96046e-08 11 5.96046e-08V2ZM11 5H7.8V7H11V5ZM7.8 5C7.6029 5 7.45675 4.98816 7.37993 4.97641C7.33336 4.96928 7.3547 4.96856 7.4103 4.9893C7.43271 4.99766 7.52627 5.03281 7.63237 5.11593C7.72445 5.18807 8 5.4374 8 5.87805H6C6 6.33596 6.28628 6.60204 6.39892 6.69029C6.52557 6.78952 6.64953 6.84013 6.71126 6.86316C6.8455 6.91324 6.98122 6.93868 7.07756 6.95342C7.28657 6.98539 7.54042 7 7.8 7V5ZM8 5.87805V2.17553H6V5.87805H8ZM8 2.17553C8 1.98695 8.01112 1.86977 8.02376 1.8007C8.03663 1.73044 8.04334 1.754 8.00404 1.8129C7.9827 1.84487 7.9518 1.88113 7.91045 1.91486C7.8692 1.9485 7.82818 1.97096 7.79423 1.98491C7.73267 2.0102 7.71304 2 7.78364 2V5.96046e-08C7.32415 5.96046e-08 6.72556 0.125678 6.34049 0.702678C6.03705 1.15734 6 1.72475 6 2.17553H8ZM7.78364 2H11V5.96046e-08H7.78364V2Z" fill="url(#paint10_linear)" mask="url(#path-29-inside-2)"/>
<path opacity="0.9" d="M8.66446 4.5H37.3355C37.3547 4.5 37.3884 4.5078 37.4267 4.55222C37.4659 4.59768 37.5 4.67341 37.5 4.77078V45.2292C37.5 45.3266 37.4659 45.4023 37.4267 45.4478C37.3884 45.4922 37.3547 45.5 37.3355 45.5H8.66446C8.64528 45.5 8.61162 45.4922 8.57332 45.4478C8.53413 45.4023 8.5 45.3266 8.5 45.2292V4.77078C8.5 4.67341 8.53413 4.59769 8.57332 4.55222C8.61162 4.5078 8.64529 4.5 8.66446 4.5Z" fill="url(#paint11_radial)" stroke="#0E141F"/>
<path d="M12 4C12 4 12 33.2045 12 46H7.87352C7.30267 46 7 45.6627 7 45.0828V4H12Z" fill="url(#paint12_linear)"/>
<path d="M11.5 4.5V4.513V4.5384V4.56438V4.59095V4.6181V4.64582V4.67413V4.703V4.73246V4.76248V4.79307V4.82422V4.85594V4.88822V4.92107V4.95447V4.98843V5.02294V5.058V5.09362V5.12978V5.16649V5.20374V5.24154V5.27987V5.31874V5.35815V5.39809V5.43857V5.47957V5.5211V5.56316V5.60574V5.64884V5.69247V5.73661V5.78126V5.82643V5.87211V5.9183V5.965V6.0122V6.05991V6.10811V6.15682V6.20602V6.25572V6.30591V6.35659V6.40776V6.45942V6.51157V6.56419V6.6173V6.67088V6.72495V6.77948V6.83449V6.88997V6.94592V7.00234V7.05922V7.11656V7.17437V7.23263V7.29134V7.35052V7.41014V7.47022V7.53074V7.59171V7.65312V7.71498V7.77727V7.84001V7.90318V7.96678V8.03082V8.09528V8.16017V8.22549V8.29124V8.3574V8.42398V8.49099V8.5584V8.62623V8.69448V8.76313V8.83219V8.90165V8.97152V9.04179V9.11246V9.18352V9.25498V9.32684V9.39908V9.47172V9.54474V9.61814V9.69193V9.7661V9.84065V9.91558V9.99088V10.0666V10.1426V10.219V10.2958V10.3729V10.4504V10.5283V10.6065V10.6851V10.7641V10.8433V10.923V11.003V11.0833V11.164V11.245V11.3264V11.4081V11.4901V11.5725V11.6552V11.7382V11.8216V11.9052V11.9893V12.0736V12.1582V12.2432V12.3285V12.4141V12.5V12.5862V12.6727V12.7596V12.8467V12.9341V13.0219V13.1099V13.1982V13.2869V13.3758V13.465V13.5545V13.6442V13.7343V13.8246V13.9152V14.0061V14.0973V14.1887V14.2805V14.3724V14.4647V14.5572V14.65V14.743V14.8363V14.9299V15.0237V15.1177V15.212V15.3066V15.4014V15.4964V15.5917V15.6873V15.783V15.879V15.9753V16.0717V16.1684V16.2654V16.3625V16.4599V16.5575V16.6553V16.7534V16.8516V16.9501V17.0488V17.1476V17.2467V17.346V17.4455V17.5453V17.6452V17.7453V17.8456V17.9461V18.0467V18.1476V18.2487V18.3499V18.4513V18.553V18.6547V18.7567V18.8588V18.9612V19.0636V19.1663V19.2691V19.3721V19.4753V19.5786V19.682V19.7857V19.8894V19.9934V20.0974V20.2017V20.306V20.4106V20.5152V20.62V20.725V20.8301V20.9353V21.0406V21.1461V21.2517V21.3574V21.4633V21.5692V21.6753V21.7816V21.8879V21.9943V22.1009V22.2075V22.3143V22.4212V22.5282V22.6352V22.7424V22.8497V22.9571V23.0646V23.1721V23.2798V23.3875V23.4953V23.6032V23.7112V23.8193V23.9274V24.0356V24.1439V24.2523V24.3607V24.4692V24.5778V24.6864V24.7951V24.9038V25.0126V25.1215V25.2304V25.3393V25.4484V25.5574V25.6665V25.7756V25.8848V25.994V26.1033V26.2126V26.3219V26.4313V26.5406V26.6501V26.7595V26.8689V26.9784V27.0879V27.1974V27.3069V27.4165V27.526V27.6355V27.7451V27.8547V27.9642V28.0738V28.1833V28.2929V28.4024V28.512V28.6215V28.731V28.8405V28.95V29.0595V29.1689V29.2783V29.3877V29.4971V29.6065V29.7158V29.825V29.9343V30.0435V30.1527V30.2618V30.3709V30.4799V30.5889V30.6978V30.8067V30.9156V31.0243V31.1331V31.2417V31.3503V31.4589V31.5673V31.6757V31.7841V31.8923V32.0005V32.1086V32.2167V32.3246V32.4325V32.5403V32.648V32.7556V32.8631V32.9706V33.0779V33.1851V33.2923V33.3993V33.5063V33.6131V33.7198V33.8265V33.933V34.0394V34.1457V34.2518V34.3579V34.4638V34.5696V34.6753V34.7809V34.8863V34.9916V35.0967V35.2018V35.3067V35.4114V35.516V35.6205V35.7248V35.829V35.933V36.0369V36.1406V36.2442V36.3476V36.4508V36.5539V36.6568V36.7596V36.8622V36.9646V37.0669V37.1689V37.2708V37.3726V37.4741V37.5755V37.6766V37.7776V37.8784V37.979V38.0795V38.1797V38.2797V38.3796V38.4792V38.5786V38.6778V38.7769V38.8757V38.9743V39.0727V39.1708V39.2688V39.3665V39.464V39.5613V39.6584V39.7552V39.8519V39.9482V40.0444V40.1403V40.236V40.3314V40.4266V40.5216V40.6163V40.7108V40.805V40.8989V40.9927V41.0861V41.1793V41.2723V41.3649V41.4573V41.5495V41.6414V41.733V41.8243V41.9154V42.0062V42.0967V42.1869V42.2769V42.3665V42.4559V42.545V42.6338V42.7223V42.8106V42.8985V42.9861V43.0734V43.1604V43.2472V43.3336V43.4197V43.5055V43.591V43.6761V43.761V43.8455V43.9297V44.0136V44.0972V44.1804V44.2633V44.3459V44.4281V44.51V44.5916V44.6728V44.7537V44.8343V44.9145V44.9944V45.0739V45.153V45.2318V45.3103V45.3884V45.4661V45.5H7.87352C7.68747 45.5 7.61632 45.4477 7.58744 45.4169C7.55375 45.3809 7.5 45.2905 7.5 45.0828V4.5H11.5Z" stroke="#3D211B" stroke-opacity="0.8"/>
<path opacity="0.5" d="M8.5 5.5H36.5V44.5H8.5V5.5Z" stroke="url(#paint13_linear)" stroke-linecap="round" stroke-linejoin="round"/>
<path d="M18.7239 38.625H20.7141M13.5 10.875H15.453H13.5ZM15.7319 10.875H17.5454H15.7319ZM17.8373 10.875H19.4555H17.8373ZM19.7216 10.875H20.419H19.7216ZM20.698 10.875H22.2604H20.698ZM22.5673 10.875H26.6685H22.5673ZM26.9475 10.875H30.0722H26.9475ZM30.3512 10.875H31.2998H30.3512ZM13.5 12.75H16.5281H13.5ZM16.8804 12.75H18.3274H16.8804ZM18.5948 12.75H19.3089H18.5948ZM19.5994 12.75H20.9322H19.5994ZM21.2112 12.75H22.5781H21.2112ZM22.8361 12.75H24.9824H22.8361ZM25.2614 12.75H28.0929H25.2614ZM13.5 14.615H16.063H13.5ZM16.3323 14.615H20.5533H16.3323ZM20.812 14.615H22.8592H20.812ZM23.1215 14.615H25.0366H23.1215ZM25.3112 14.615H26.9426H25.3112ZM27.205 14.615L29.7707 14.635L27.205 14.615ZM13.5 16.5H17.0636H13.5ZM17.3434 16.5H21.1949H17.3434ZM21.461 16.5H22.9745H21.461ZM23.2535 16.5H26.856H23.2535ZM27.0985 16.5H29.5676H27.0985ZM29.8466 16.5H30.8238H29.8466ZM31.1028 16.5H31.6434H31.1028ZM13.5 18.375H14.8302H13.5ZM15.2389 18.375H20.1641H15.2389ZM13.5 28.5H16.5281H13.5ZM16.8804 28.5H18.3274H16.8804ZM18.5948 28.5H19.3089H18.5948ZM19.5994 28.5H20.9322H19.5994ZM21.2112 28.5H22.5781H21.2112ZM22.8361 28.5H24.9824H22.8361ZM13.5 32.5943H16.063H13.5ZM16.3323 32.5943H20.5533H16.3323ZM20.812 32.5943H22.8592H20.812ZM30.0932 32.6557H34.2744H30.0932ZM13.5 26.625H17.0636H13.5ZM17.3434 26.625H21.1949H17.3434ZM21.461 26.625H22.9745H21.461ZM23.2535 26.625H26.856H23.2535ZM13.5 22.5H15.453H13.5ZM15.7319 22.5H17.5454H15.7319ZM17.8373 22.5H19.4555H17.8373ZM19.7216 22.5H20.419H19.7216ZM20.698 22.5H22.2604H20.698ZM22.5673 22.5H26.6685H22.5673ZM26.9475 22.5H30.0722H26.9475ZM13.5 24.75H16.789H13.5ZM17.0477 24.75H20.5403H17.0477ZM20.8063 24.75H22.172H20.8063ZM22.4299 24.75H25.7156H22.4299ZM25.9792 24.75H29.5676H25.9792ZM13.5 34.5H16.5735H13.5ZM16.9035 34.5H18.2585H16.9035ZM18.5759 34.5H19.2517H18.5759ZM19.4669 34.5H20.8011H19.4669ZM20.9782 34.5H28.0416H20.9782ZM28.3739 34.5H30.2594H28.3739ZM30.513 34.5H30.9891H30.513ZM17.0015 36.75H18.0041H17.0015ZM13.5 36.75H16.708H13.5ZM18.2605 36.75H20.5932H18.2605ZM20.84 36.75H24.2643H20.84ZM24.5304 36.75H26.8534H24.5304ZM27.0872 36.75H27.5659H27.0872ZM27.8276 36.75H30.7774H27.8276ZM31.079 36.75H32.6234H31.079ZM17.0015 38.625H18.4171H17.0015ZM13.5 38.625H16.708H13.5Z" stroke="#657B83"/>
<path d="M20.84 36.75H24.2643M13.5 14.615H16.063H13.5ZM31.1028 16.5H31.6434H31.1028ZM13.5 28.5H16.5281H13.5ZM13.5 22.5H15.453H13.5ZM20.8063 24.75H22.172H20.8063Z" stroke="#D33682"/>
<path d="M26.9475 22.5H30.0722M20.6981 10.875H22.2604H20.6981ZM25.2614 12.75H28.0929H25.2614ZM22.8361 28.5H24.9824H22.8361Z" stroke="#268BD2"/>
<path d="M17.0015 38.625H18.4171M13.5 10.875H15.453H13.5ZM23.2535 16.5H26.856H23.2535ZM19.5994 28.5H20.9322H19.5994ZM23.2535 26.625H26.856H23.2535ZM15.7319 22.5H17.5454H15.7319Z" stroke="#859900"/>
<path d="M19.4062 17.25C18.1867 17.25 17.5403 17.4708 16.9277 17.9268C16.3208 18.3766 16.0312 19.0925 16.0312 20.0537V22.9219C16.0312 23.4949 15.8221 23.8953 15.4512 24.1787C15.0859 24.456 14.2587 24.6299 13.5 24.6299V26.3701C14.9949 26.3701 16.0312 26.9643 16.0312 28.1104V30.7207C16.0312 31.7743 16.3074 32.5727 16.875 33.041C17.4482 33.5155 18.108 33.7377 19.4062 33.75V32.0742C18.76 32.0619 18.4272 31.9141 18.1406 31.6553C17.854 31.3965 17.7188 31.0326 17.7188 30.5273V27.7559C17.7188 26.5174 17.2127 25.7863 15.9258 25.5645V25.4355C17.2127 25.1953 17.7188 24.4381 17.7188 23.2119V20.4727C17.7188 19.9674 17.854 19.6296 18.1406 19.377C18.4329 19.1182 18.7656 18.9566 19.4062 18.9258V17.25ZM27.8438 17.25V18.9258C28.4844 18.9566 28.8171 19.1182 29.1094 19.377C29.396 19.6296 29.5312 19.9674 29.5312 20.4727V23.2119C29.5312 24.4381 30.0373 25.1953 31.3242 25.4355V25.5645C30.0373 25.7863 29.5312 26.5174 29.5312 27.7559V30.5273C29.5312 31.0326 29.396 31.3965 29.1094 31.6553C28.8228 31.9141 28.49 32.0619 27.8438 32.0742V33.75C29.142 33.7377 29.8018 33.5155 30.375 33.041C30.9426 32.5727 31.2188 31.7743 31.2188 30.7207V28.1104C31.2188 26.9643 32.2551 26.3701 33.75 26.3701V24.6299C32.9913 24.6299 32.1641 24.456 31.7988 24.1787C31.4279 23.8953 31.2188 23.4949 31.2188 22.9219V20.0537C31.2188 19.0925 30.9292 18.3766 30.3223 17.9268C29.7097 17.4708 29.0633 17.25 27.8438 17.25Z" fill="black" fill-opacity="0.6" stroke="black" stroke-opacity="0.15" stroke-width="5"/>
<path d="M19.4062 18C18.1867 18 17.5403 18.2208 16.9277 18.6768C16.3208 19.1266 16.0312 19.8425 16.0312 20.8037V23.6719C16.0312 24.2449 15.8221 24.6453 15.4512 24.9287C15.0859 25.206 14.2587 25.3799 13.5 25.3799V27.1201C14.9949 27.1201 16.0312 27.7143 16.0312 28.8604V31.4707C16.0312 32.5243 16.3074 33.3227 16.875 33.791C17.4482 34.2655 18.108 34.4877 19.4062 34.5V32.8242C18.76 32.8119 18.4272 32.6641 18.1406 32.4053C17.854 32.1465 17.7188 31.7826 17.7188 31.2773V28.5059C17.7188 27.2674 17.2127 26.5363 15.9258 26.3145V26.1855C17.2127 25.9453 17.7188 25.1881 17.7188 23.9619V21.2227C17.7188 20.7174 17.854 20.3796 18.1406 20.127C18.4329 19.8682 18.7656 19.7066 19.4062 19.6758V18ZM27.8438 18V19.6758C28.4844 19.7066 28.8171 19.8682 29.1094 20.127C29.396 20.3796 29.5312 20.7174 29.5312 21.2227V23.9619C29.5312 25.1881 30.0373 25.9453 31.3242 26.1855V26.3145C30.0373 26.5363 29.5312 27.2674 29.5312 28.5059V31.2773C29.5312 31.7826 29.396 32.1465 29.1094 32.4053C28.8228 32.6641 28.49 32.8119 27.8438 32.8242V34.5C29.142 34.4877 29.8018 34.2655 30.375 33.791C30.9426 33.3227 31.2188 32.5243 31.2188 31.4707V28.8604C31.2188 27.7143 32.2551 27.1201 33.75 27.1201V25.3799C32.9913 25.3799 32.1641 25.206 31.7988 24.9287C31.4279 24.6453 31.2188 24.2449 31.2188 23.6719V20.8037C31.2188 19.8425 30.9292 19.1266 30.3223 18.6768C29.7097 18.2208 29.0633 18 27.8438 18Z" stroke="black" stroke-opacity="0.07" stroke-width="10"/>
<path d="M19.4062 16.5C18.1867 16.5 17.5403 16.7208 16.9277 17.1768C16.3208 17.6266 16.0312 18.3425 16.0312 19.3037V22.1719C16.0312 22.7449 15.8221 23.1453 15.4512 23.4287C15.0859 23.706 14.2587 23.8799 13.5 23.8799V25.6201C14.9949 25.6201 16.0312 26.2143 16.0312 27.3604V29.9707C16.0312 31.0243 16.3074 31.8227 16.875 32.291C17.4482 32.7655 18.108 32.9877 19.4062 33V31.3242C18.76 31.3119 18.4272 31.1641 18.1406 30.9053C17.854 30.6465 17.7188 30.2826 17.7188 29.7773V27.0059C17.7188 25.7674 17.2127 25.0363 15.9258 24.8145V24.6855C17.2127 24.4453 17.7188 23.6881 17.7188 22.4619V19.7227C17.7188 19.2174 17.854 18.8796 18.1406 18.627C18.4329 18.3682 18.7656 18.2066 19.4062 18.1758V16.5ZM27.8438 16.5V18.1758C28.4844 18.2066 28.8171 18.3682 29.1094 18.627C29.396 18.8796 29.5312 19.2174 29.5312 19.7227V22.4619C29.5312 23.6881 30.0373 24.4453 31.3242 24.6855V24.8145C30.0373 25.0363 29.5312 25.7674 29.5312 27.0059V29.7773C29.5312 30.2826 29.396 30.6465 29.1094 30.9053C28.8228 31.1641 28.49 31.3119 27.8438 31.3242V33C29.142 32.9877 29.8018 32.7655 30.375 32.291C30.9426 31.8227 31.2188 31.0243 31.2188 29.9707V27.3604C31.2188 26.2143 32.2551 25.6201 33.75 25.6201V23.8799C32.9913 23.8799 32.1641 23.706 31.7988 23.4287C31.4279 23.1453 31.2188 22.7449 31.2188 22.1719V19.3037C31.2188 18.3425 30.9292 17.6266 30.3223 17.1768C29.7097 16.7208 29.0633 16.5 27.8438 16.5Z" fill="url(#paint14_linear)"/>
<line x1="8" y1="3.75" x2="37" y2="3.75" stroke="#ABACAE" stroke-width="0.5"/>
<line x1="8" y1="2.75" x2="36" y2="2.75" stroke="#ABACAE" stroke-width="0.5"/>
<defs>
<radialGradient id="paint0_radial" cx="0" cy="0" r="1" gradientUnits="userSpaceOnUse" gradientTransform="translate(38.2624 44.8125) scale(5.24016 2.4375)">
<stop stop-color="#181818"/>
<stop offset="1" stop-color="#181818" stop-opacity="0"/>
</radialGradient>
<radialGradient id="paint1_radial" cx="0" cy="0" r="1" gradientUnits="userSpaceOnUse" gradientTransform="translate(8.9876 44.8125) rotate(180) scale(5.24016 2.4375)">
<stop stop-color="#181818"/>
<stop offset="1" stop-color="#181818" stop-opacity="0"/>
</radialGradient>
<linearGradient id="paint2_linear" x1="24.7318" y1="47.2693" x2="24.7318" y2="42.3746" gradientUnits="userSpaceOnUse">
<stop stop-color="#181818" stop-opacity="0"/>
<stop offset="0.5" stop-color="#181818"/>
<stop offset="1" stop-color="#181818" stop-opacity="0"/>
</linearGradient>
<linearGradient id="paint3_linear" x1="39.5" y1="33.8919" x2="39.5" y2="42.1081" gradientUnits="userSpaceOnUse">
<stop stop-color="white"/>
<stop offset="0.0270648" stop-color="white" stop-opacity="0.235294"/>
<stop offset="0.97377" stop-color="white" stop-opacity="0.156863"/>
<stop offset="1" stop-color="white" stop-opacity="0.392157"/>
</linearGradient>
<linearGradient id="paint4_linear" x1="39.5" y1="25.9054" x2="39.5" y2="33.0946" gradientUnits="userSpaceOnUse">
<stop stop-color="white"/>
<stop offset="0.0270648" stop-color="white" stop-opacity="0.235294"/>
<stop offset="0.97377" stop-color="white" stop-opacity="0.156863"/>
<stop offset="1" stop-color="white" stop-opacity="0.392157"/>
</linearGradient>
<linearGradient id="paint5_linear" x1="39.5" y1="16.9054" x2="39.5" y2="24.0946" gradientUnits="userSpaceOnUse">
<stop stop-color="white"/>
<stop offset="0.0270648" stop-color="white" stop-opacity="0.235294"/>
<stop offset="0.97377" stop-color="white" stop-opacity="0.156863"/>
<stop offset="1" stop-color="white" stop-opacity="0.392157"/>
</linearGradient>
<linearGradient id="paint6_linear" x1="39.5" y1="7.89189" x2="39.5" y2="16.1081" gradientUnits="userSpaceOnUse">
<stop stop-color="white"/>
<stop offset="0.0270648" stop-color="white" stop-opacity="0.235294"/>
<stop offset="0.97377" stop-color="white" stop-opacity="0.156863"/>
<stop offset="1" stop-color="white" stop-opacity="0.392157"/>
</linearGradient>
<linearGradient id="paint7_linear" x1="24.1869" y1="2.23799" x2="24.2151" y2="4.67669" gradientUnits="userSpaceOnUse">
<stop stop-color="#F5F5F5"/>
<stop offset="1" stop-color="#E1E1E1"/>
</linearGradient>
<linearGradient id="paint8_linear" x1="6.9211" y1="1.54674" x2="37.5419" y2="1.54674" gradientUnits="userSpaceOnUse">
<stop stop-color="#0E9A83"/>
<stop offset="0.95971" stop-color="#0E9A83"/>
<stop offset="0.963265" stop-color="#C2C2C2"/>
<stop offset="1" stop-color="#C2C2C2"/>
</linearGradient>
<linearGradient id="paint9_linear" x1="10.3232" y1="1.62497" x2="10.3232" y2="4.12499" gradientUnits="userSpaceOnUse">
<stop stop-color="#F5F5F5"/>
<stop offset="1" stop-color="#E1E1E1"/>
</linearGradient>
<linearGradient id="paint10_linear" x1="22.6" y1="6.0641" x2="22.6" y2="0.922948" gradientUnits="userSpaceOnUse">
<stop stop-color="#272727"/>
<stop offset="1" stop-color="#454545"/>
</linearGradient>
<radialGradient id="paint11_radial" cx="0" cy="0" r="1" gradientUnits="userSpaceOnUse" gradientTransform="translate(23.708 -10.6357) rotate(90) scale(114.101 125.878)">
<stop stop-color="#206A7C"/>
<stop offset="0.26238" stop-color="#073642"/>
<stop offset="0.704952" stop-color="#002B36"/>
<stop offset="1" stop-color="#00161C"/>
</radialGradient>
<linearGradient id="paint12_linear" x1="9.5" y1="4" x2="9.5" y2="46" gradientUnits="userSpaceOnUse">
<stop stop-color="#8A715E"/>
<stop offset="1" stop-color="#57392D"/>
</linearGradient>
<linearGradient id="paint13_linear" x1="22.5" y1="4.45946" x2="22.5" y2="45.5405" gradientUnits="userSpaceOnUse">
<stop stop-color="white"/>
<stop offset="0.0270648" stop-color="white" stop-opacity="0.235294"/>
<stop offset="0.97377" stop-color="white" stop-opacity="0.156863"/>
<stop offset="1" stop-color="white" stop-opacity="0.392157"/>
</linearGradient>
<linearGradient id="paint14_linear" x1="20.4609" y1="16.5" x2="15.2534" y2="43.0651" gradientUnits="userSpaceOnUse">
<stop stop-color="#FAFAFA"/>
<stop offset="1" stop-color="#D4D4D4"/>
</linearGradient>
</defs>
</svg>
