<svg width="24" height="24" viewBox="0 0 24 24" fill="none" xmlns="http://www.w3.org/2000/svg">
<g opacity="0.4">
<path opacity="0.4" d="M21.75 21.1875H19.1349V23.625H21.75V21.1875Z" fill="url(#paint0_radial)"/>
<path opacity="0.4" d="M1.87498 23.625H4.49011V21.1875H1.87498V23.625Z" fill="url(#paint1_radial)"/>
<path opacity="0.4" d="M19.1348 21.1875H4.49011V23.625H19.1348V21.1875Z" fill="url(#paint2_linear)"/>
</g>
<path d="M19 17.5C19 16.6716 19.6716 16 20.5 16V16C21.3284 16 22 16.6716 22 17.5V19.5C22 20.3284 21.3284 21 20.5 21V21C19.6716 21 19 20.3284 19 19.5V17.5Z" fill="#A56DE2"/>
<path d="M21.5 17.5V19.5C21.5 20.0523 21.0523 20.5 20.5 20.5C19.9477 20.5 19.5 20.0523 19.5 19.5V17.5C19.5 16.9477 19.9477 16.5 20.5 16.5C21.0523 16.5 21.5 16.9477 21.5 17.5Z" stroke="#5B3C7C" stroke-opacity="0.5"/>
<path d="M18.75 13.2188C18.75 12.7528 19.1278 12.375 19.5938 12.375V12.375C20.0597 12.375 20.4375 12.7528 20.4375 13.2188V16.5938C20.4375 17.0597 20.0597 17.4375 19.5938 17.4375V17.4375C19.1278 17.4375 18.75 17.0597 18.75 16.5938V13.2188Z" fill="black" fill-opacity="0.15"/>
<path d="M19 13.5C19 12.6716 19.6716 12 20.5 12V12C21.3284 12 22 12.6716 22 13.5V15.5C22 16.3284 21.3284 17 20.5 17V17C19.6716 17 19 16.3284 19 15.5V13.5Z" fill="#F0DB4F"/>
<path d="M21.5 13.5V15.5C21.5 16.0523 21.0523 16.5 20.5 16.5C19.9477 16.5 19.5 16.0523 19.5 15.5V13.5C19.5 12.9477 19.9477 12.5 20.5 12.5C21.0523 12.5 21.5 12.9477 21.5 13.5Z" stroke="#A59738" stroke-opacity="0.5"/>
<path d="M18.75 8.90625C18.75 8.44026 19.1278 8.0625 19.5938 8.0625V8.0625C20.0597 8.0625 20.4375 8.44026 20.4375 8.90625V12.2813C20.4375 12.7472 20.0597 13.125 19.5938 13.125V13.125C19.1278 13.125 18.75 12.7472 18.75 12.2813V8.90625Z" fill="black" fill-opacity="0.15"/>
<path d="M19 9.5C19 8.67157 19.6716 8 20.5 8V8C21.3284 8 22 8.67157 22 9.5V11.5C22 12.3284 21.3284 13 20.5 13V13C19.6716 13 19 12.3284 19 11.5V9.5Z" fill="#4F98D2"/>
<path d="M21.5 9.5V11.5C21.5 12.0523 21.0523 12.5 20.5 12.5C19.9477 12.5 19.5 12.0523 19.5 11.5V9.5C19.5 8.94772 19.9477 8.5 20.5 8.5C21.0523 8.5 21.5 8.94772 21.5 9.5Z" stroke="#2E597C" stroke-opacity="0.5"/>
<path d="M18.75 3.75V3.75C19.682 3.75 20.4375 4.50552 20.4375 5.4375V7.125C20.4375 8.05698 19.682 8.8125 18.75 8.8125V8.8125V3.75Z" fill="black" fill-opacity="0.15"/>
<path d="M19 3H20C21.1046 3 22 3.89543 22 5V7C22 8.10457 21.1046 9 20 9H19V3Z" fill="#403757"/>
<path d="M19.5 3.5H20C20.8284 3.5 21.5 4.17157 21.5 5V7C21.5 7.82843 20.8284 8.5 20 8.5H19.5V3.5Z" stroke="#231E2F" stroke-opacity="0.5"/>
<mask id="path-15-outside-1" maskUnits="userSpaceOnUse" x="4" y="0" width="16" height="4" fill="black">
<rect fill="white" x="4" width="16" height="4"/>
<path d="M19 3C18.8682 2.40437 18.4975 1.56807 18.4247 1H5L5.4632 2.80273"/>
</mask>
<path d="M19 3C18.8682 2.40437 18.4975 1.56807 18.4247 1H5L5.4632 2.80273" fill="url(#paint3_linear)"/>
<path d="M18.4247 1L19.4165 0.872878C19.3526 0.373822 18.9278 0 18.4247 0V1ZM5 1V0C4.69092 0 4.39921 0.142924 4.20979 0.387163C4.02037 0.631402 3.95454 0.949505 4.03146 1.24886L5 1ZM19.9764 2.78392C19.896 2.42065 19.746 1.99458 19.6388 1.67325C19.5151 1.30237 19.4385 1.04383 19.4165 0.872878L17.4328 1.12712C17.4837 1.52424 17.6288 1.96788 17.7416 2.30608C17.8709 2.69382 17.9722 2.98371 18.0236 3.21608L19.9764 2.78392ZM18.4247 0H5V2H18.4247V0ZM4.03146 1.24886L4.49467 3.05159L6.43174 2.55387L5.96854 0.751138L4.03146 1.24886Z" fill="url(#paint4_linear)" mask="url(#path-15-outside-1)"/>
<mask id="path-17-inside-2" fill="white">
<path d="M7 3H4.6C4.25749 3 4 2.96825 4 2.92683V0.705319C4 0.177355 4.14862 0 4.58773 0H7"/>
</mask>
<path d="M7 3H4.6C4.25749 3 4 2.96825 4 2.92683V0.705319C4 0.177355 4.14862 0 4.58773 0H7" fill="url(#paint5_linear)"/>
<path d="M7 4C7.55228 4 8 3.55228 8 3C8 2.44772 7.55228 2 7 2V4ZM7 1C7.55228 1 8 0.552285 8 0C8 -0.552285 7.55228 -1 7 -1V1ZM7 2H4.6V4H7V2ZM4.6 2C4.45364 2 4.34685 1.99294 4.29301 1.98635C4.25877 1.98216 4.28091 1.98238 4.33156 1.9975C4.3495 2.00285 4.43804 2.02888 4.54281 2.09454C4.59642 2.12815 4.69576 2.19756 4.78943 2.31683C4.88963 2.44441 5 2.65315 5 2.92683H3C3 3.48426 3.41717 3.7494 3.48066 3.78919C3.60084 3.86452 3.71218 3.89982 3.75961 3.91397C3.86925 3.94669 3.97716 3.96262 4.05011 3.97154C4.21064 3.99119 4.40385 4 4.6 4V2ZM5 2.92683V0.705319H3V2.92683H5ZM5 0.705319C5 0.61303 5.00722 0.58525 5.00489 0.595439C5.00162 0.609715 4.97955 0.696403 4.89708 0.795261C4.80735 0.902826 4.70002 0.960611 4.6229 0.985959C4.561 1.00631 4.53672 1 4.58773 1V-1C4.2708 -1 3.7419 -0.942127 3.36131 -0.485915C3.02697 -0.0851326 3 0.410177 3 0.705319H5ZM4.58773 1H7V-1H4.58773V1Z" fill="url(#paint6_linear)" mask="url(#path-17-inside-2)"/>
<path opacity="0.9" d="M4.5 22.5V2.5H19.5V22.5H4.5Z" fill="url(#paint7_radial)" stroke="#0E141F"/>
<path d="M7 2C7 2 7 16.6022 7 23H4.52411C4.1816 23 4 22.8313 4 22.5414V2H7Z" fill="url(#paint8_linear)"/>
<path d="M6.5 2.5V2.51147V2.529V2.54681V2.56489V2.58324V2.60187V2.62077V2.63994V2.65937V2.67908V2.69905V2.71928V2.73979V2.76055V2.78158V2.80287V2.82442V2.84623V2.8683V2.89063V2.91322V2.93606V2.95915V2.9825V3.0061V3.02995V3.05406V3.07841V3.10301V3.12786V3.15296V3.1783V3.20388V3.22971V3.25578V3.2821V3.30865V3.33544V3.36247V3.38974V3.41725V3.44499V3.47296V3.50117V3.52961V3.55828V3.58718V3.61631V3.64567V3.67526V3.70507V3.73511V3.76537V3.79585V3.82656V3.85749V3.88864V3.92V3.95159V3.98339V4.01541V4.04764V4.08009V4.11275V4.14562V4.1787V4.21199V4.24549V4.2792V4.31312V4.34724V4.38156V4.41609V4.45083V4.48576V4.52089V4.55623V4.59176V4.62749V4.66342V4.69954V4.73586V4.77237V4.80907V4.84597V4.88305V4.92033V4.95779V4.99544V5.03328V5.0713V5.10951V5.1479V5.18647V5.22522V5.26416V5.30327V5.34256V5.38203V5.42167V5.46149V5.50149V5.54165V5.58199V5.6225V5.66318V5.70403V5.74505V5.78623V5.82758V5.8691V5.91078V5.95262V5.99463V6.03679V6.07912V6.1216V6.16424V6.20704V6.24999V6.2931V6.33637V6.37978V6.42335V6.46707V6.51093V6.55495V6.59911V6.64343V6.68788V6.73248V6.77723V6.82211V6.86714V6.91231V6.95762V7.00307V7.04865V7.09437V7.14023V7.18622V7.23234V7.2786V7.32499V7.3715V7.41815V7.46493V7.51183V7.55886V7.60601V7.65329V7.70069V7.74822V7.79586V7.84363V7.89151V7.93951V7.98763V8.03587V8.08422V8.13268V8.18126V8.22995V8.27875V8.32766V8.37668V8.4258V8.47504V8.52438V8.57382V8.62337V8.67302V8.72277V8.77263V8.82258V8.87263V8.92278V8.97303V9.02337V9.0738V9.12434V9.17496V9.22567V9.27648V9.32737V9.37835V9.42942V9.48058V9.53182V9.58315V9.63456V9.68605V9.73763V9.78928V9.84101V9.89283V9.94472V9.99668V10.0487V10.1008V10.153V10.2053V10.2576V10.31V10.3625V10.415V10.4676V10.5203V10.573V10.6258V10.6787V10.7316V10.7846V10.8377V10.8908V10.9439V10.9972V11.0504V11.1038V11.1572V11.2106V11.2641V11.3176V11.3712V11.4249V11.4785V11.5323V11.5861V11.6399V11.6937V11.7477V11.8016V11.8556V11.9096V11.9637V12.0178V12.072V12.1261V12.1804V12.2346V12.2889V12.3432V12.3975V12.4519V12.5063V12.5607V12.6152V12.6697V12.7242V12.7787V12.8333V12.8878V12.9424V12.997V13.0516V13.1063V13.161V13.2156V13.2703V13.325V13.3797V13.4345V13.4892V13.5439V13.5987V13.6535V13.7082V13.763V13.8178V13.8726V13.9273V13.9821V14.0369V14.0917V14.1465V14.2012V14.256V14.3108V14.3655V14.4203V14.475V14.5297V14.5845V14.6392V14.6939V14.7486V14.8032V14.8579V14.9125V14.9671V15.0217V15.0763V15.1309V15.1854V15.24V15.2944V15.3489V15.4034V15.4578V15.5122V15.5665V15.6209V15.6752V15.7294V15.7837V15.8379V15.892V15.9462V16.0003V16.0543V16.1083V16.1623V16.2162V16.2701V16.324V16.3778V16.4316V16.4853V16.539V16.5926V16.6461V16.6997V16.7531V16.8066V16.8599V16.9132V16.9665V17.0197V17.0728V17.1259V17.1789V17.2319V17.2848V17.3377V17.3904V17.4431V17.4958V17.5484V17.6009V17.6533V17.7057V17.758V17.8102V17.8624V17.9145V17.9665V18.0184V18.0703V18.1221V18.1738V18.2254V18.277V18.3284V18.3798V18.4311V18.4823V18.5334V18.5845V18.6354V18.6863V18.737V18.7877V18.8383V18.8888V18.9392V18.9895V19.0397V19.0898V19.1399V19.1898V19.2396V19.2893V19.3389V19.3884V19.4378V19.4871V19.5363V19.5854V19.6344V19.6833V19.732V19.7807V19.8292V19.8776V19.9259V19.9741V20.0222V20.0702V20.118V20.1657V20.2133V20.2608V20.3082V20.3554V20.4025V20.4495V20.4963V20.5431V20.5897V20.6361V20.6825V20.7287V20.7747V20.8207V20.8665V20.9122V20.9577V21.0031V21.0483V21.0935V21.1384V21.1833V21.228V21.2725V21.3169V21.3612V21.4053V21.4492V21.4931V21.5367V21.5802V21.6236V21.6668V21.7098V21.7527V21.7955V21.8381V21.8805V21.9228V21.9649V22.0068V22.0486V22.0902V22.1317V22.1729V22.2141V22.255V22.2958V22.3364V22.3769V22.4171V22.4572V22.4972V22.5H4.52411C4.51527 22.5 4.50725 22.4998 4.5 22.4994V2.5H6.5Z" stroke="#3D211B" stroke-opacity="0.8"/>
<path opacity="0.5" d="M5.5 3.5H18.5V21.5H5.5V3.5Z" stroke="url(#paint9_linear)" stroke-linecap="round" stroke-linejoin="round"/>
<path d="M10.4531 8.625C9.84336 8.62501 9.52015 8.73541 9.21387 8.96338C8.91039 9.18828 8.76562 9.54626 8.76562 10.0269V11.4609C8.76562 11.7475 8.66104 11.9476 8.47559 12.0894C8.29294 12.228 7.87935 12.3149 7.5 12.3149V13.1851C8.24745 13.1851 8.76562 13.4822 8.76562 14.0552V15.3604C8.76562 15.8872 8.90369 16.2864 9.1875 16.5205C9.47411 16.7577 9.80402 16.8688 10.4531 16.875V16.0371C10.13 16.0309 9.96362 15.957 9.82031 15.8276C9.677 15.6982 9.60938 15.5163 9.60938 15.2637V13.8779C9.60938 13.2587 9.35637 12.8931 8.71289 12.7822V12.7178C9.35637 12.5976 9.60938 12.219 9.60938 11.606V10.2363C9.60938 9.98371 9.677 9.81479 9.82031 9.68848C9.96643 9.55909 10.1328 9.4783 10.4531 9.46289V8.625ZM14.6719 8.625V9.46289C14.9922 9.4783 15.1586 9.55909 15.3047 9.68848C15.448 9.81479 15.5156 9.98371 15.5156 10.2363V11.606C15.5156 12.219 15.7686 12.5976 16.4121 12.7178V12.7822C15.7686 12.8931 15.5156 13.2587 15.5156 13.8779V15.2637C15.5156 15.5163 15.448 15.6982 15.3047 15.8276C15.1614 15.957 14.995 16.0309 14.6719 16.0371V16.875C15.321 16.8688 15.6509 16.7577 15.9375 16.5205C16.2213 16.2864 16.3594 15.8872 16.3594 15.3604V14.0552C16.3594 13.4822 16.8776 13.1851 17.625 13.1851V12.3149C17.2457 12.3149 16.8321 12.228 16.6494 12.0894C16.464 11.9476 16.3594 11.7475 16.3594 11.4609V10.0269C16.3594 9.54626 16.2146 9.18828 15.9111 8.96338C15.6048 8.73541 15.2816 8.62501 14.6719 8.625Z" fill="black" fill-opacity="0.6"/>
<path d="M10.4531 8.25C9.84336 8.25001 9.52015 8.36041 9.21387 8.58838C8.91039 8.81328 8.76562 9.17126 8.76562 9.65186V11.0859C8.76562 11.3725 8.66104 11.5726 8.47559 11.7144C8.29294 11.853 7.87935 11.9399 7.5 11.9399V12.8101C8.24745 12.8101 8.76562 13.1072 8.76562 13.6802V14.9854C8.76562 15.5122 8.90369 15.9114 9.1875 16.1455C9.47411 16.3827 9.80402 16.4938 10.4531 16.5V15.6621C10.13 15.6559 9.96362 15.582 9.82031 15.4526C9.677 15.3232 9.60938 15.1413 9.60938 14.8887V13.5029C9.60938 12.8837 9.35637 12.5181 8.71289 12.4072V12.3428C9.35637 12.2226 9.60938 11.844 9.60938 11.231V9.86133C9.60938 9.60871 9.677 9.43979 9.82031 9.31348C9.96643 9.18409 10.1328 9.1033 10.4531 9.08789V8.25ZM14.6719 8.25V9.08789C14.9922 9.1033 15.1586 9.18409 15.3047 9.31348C15.448 9.43979 15.5156 9.60871 15.5156 9.86133V11.231C15.5156 11.844 15.7686 12.2226 16.4121 12.3428V12.4072C15.7686 12.5181 15.5156 12.8837 15.5156 13.5029V14.8887C15.5156 15.1413 15.448 15.3232 15.3047 15.4526C15.1614 15.582 14.995 15.6559 14.6719 15.6621V16.5C15.321 16.4938 15.6509 16.3827 15.9375 16.1455C16.2213 15.9114 16.3594 15.5122 16.3594 14.9854V13.6802C16.3594 13.1072 16.8776 12.8101 17.625 12.8101V11.9399C17.2457 11.9399 16.8321 11.853 16.6494 11.7144C16.464 11.5726 16.3594 11.3725 16.3594 11.0859V9.65186C16.3594 9.17126 16.2146 8.81328 15.9111 8.58838C15.6048 8.36041 15.2816 8.25001 14.6719 8.25Z" fill="url(#paint10_linear)"/>
<defs>
<radialGradient id="paint0_radial" cx="0" cy="0" r="1" gradientUnits="userSpaceOnUse" gradientTransform="translate(19.1312 22.4062) scale(2.62008 1.21875)">
<stop stop-color="#181818"/>
<stop offset="1" stop-color="#181818" stop-opacity="0"/>
</radialGradient>
<radialGradient id="paint1_radial" cx="0" cy="0" r="1" gradientUnits="userSpaceOnUse" gradientTransform="translate(4.49378 22.4063) rotate(180) scale(2.62008 1.21875)">
<stop stop-color="#181818"/>
<stop offset="1" stop-color="#181818" stop-opacity="0"/>
</radialGradient>
<linearGradient id="paint2_linear" x1="12.3659" y1="23.6347" x2="12.3659" y2="21.1873" gradientUnits="userSpaceOnUse">
<stop stop-color="#181818" stop-opacity="0"/>
<stop offset="0.5" stop-color="#181818"/>
<stop offset="1" stop-color="#181818" stop-opacity="0"/>
</linearGradient>
<linearGradient id="paint3_linear" x1="12.3562" y1="1.15866" x2="12.3803" y2="2.78432" gradientUnits="userSpaceOnUse">
<stop stop-color="#F5F5F5"/>
<stop offset="1" stop-color="#E1E1E1"/>
</linearGradient>
<linearGradient id="paint4_linear" x1="3.40353" y1="0.697826" x2="19.281" y2="0.697826" gradientUnits="userSpaceOnUse">
<stop stop-color="#0E9A83"/>
<stop offset="0.95971" stop-color="#0E9A83"/>
<stop offset="0.963265" stop-color="#C2C2C2"/>
<stop offset="1" stop-color="#C2C2C2"/>
</linearGradient>
<linearGradient id="paint5_linear" x1="6.49243" y1="0.374984" x2="6.49243" y2="1.87499" gradientUnits="userSpaceOnUse">
<stop stop-color="#F5F5F5"/>
<stop offset="1" stop-color="#E1E1E1"/>
</linearGradient>
<linearGradient id="paint6_linear" x1="15.7" y1="3.03846" x2="15.7" y2="-0.046231" gradientUnits="userSpaceOnUse">
<stop stop-color="#272727"/>
<stop offset="1" stop-color="#454545"/>
</linearGradient>
<radialGradient id="paint7_radial" cx="0" cy="0" r="1" gradientUnits="userSpaceOnUse" gradientTransform="translate(12.3776 -5.31786) rotate(90) scale(57.0504 67.1348)">
<stop stop-color="#206A7C"/>
<stop offset="0.26238" stop-color="#073642"/>
<stop offset="0.704952" stop-color="#002B36"/>
<stop offset="1" stop-color="#00161C"/>
</radialGradient>
<linearGradient id="paint8_linear" x1="5.5" y1="2" x2="5.5" y2="23" gradientUnits="userSpaceOnUse">
<stop stop-color="#8A715E"/>
<stop offset="1" stop-color="#57392D"/>
</linearGradient>
<linearGradient id="paint9_linear" x1="12" y1="2.74324" x2="12" y2="22.2568" gradientUnits="userSpaceOnUse">
<stop stop-color="white"/>
<stop offset="0.0270648" stop-color="white" stop-opacity="0.235294"/>
<stop offset="0.97377" stop-color="white" stop-opacity="0.156863"/>
<stop offset="1" stop-color="white" stop-opacity="0.392157"/>
</linearGradient>
<linearGradient id="paint10_linear" x1="10.9805" y1="8.25" x2="8.37671" y2="21.5326" gradientUnits="userSpaceOnUse">
<stop stop-color="#FAFAFA"/>
<stop offset="1" stop-color="#D4D4D4"/>
</linearGradient>
</defs>
</svg>
