<svg width="128" height="128" viewBox="0 0 128 128" fill="none" xmlns="http://www.w3.org/2000/svg">
<g opacity="0.4">
<path opacity="0.4" d="M117 110H103.053V123H117V110Z" fill="url(#paint0_radial)"/>
<path opacity="0.4" d="M11 123H24.9474V110H11V123Z" fill="url(#paint1_radial)"/>
<path opacity="0.4" d="M103.053 110H24.9474V123H103.053V110Z" fill="url(#paint2_linear)"/>
</g>
<path d="M101 88C101 86.8954 101.895 86 103 86H108C109.105 86 110 86.8954 110 88V111C110 112.105 109.105 113 108 113H103C101.895 113 101 112.105 101 111V88Z" fill="black" fill-opacity="0.15"/>
<path d="M108 85.5H103C101.619 85.5 100.5 86.6193 100.5 88V111C100.5 112.381 101.619 113.5 103 113.5H108C109.381 113.5 110.5 112.381 110.5 111V88C110.5 86.6193 109.381 85.5 108 85.5Z" stroke="black" stroke-opacity="0.07"/>
<path d="M101 87C101 85.8954 101.895 85 103 85H108C109.105 85 110 85.8954 110 87V110C110 111.105 109.105 112 108 112H103C101.895 112 101 111.105 101 110V87Z" fill="#A56DE2"/>
<path d="M103 85.5H108C108.828 85.5 109.5 86.1716 109.5 87V110C109.5 110.828 108.828 111.5 108 111.5H103C102.172 111.5 101.5 110.828 101.5 110V87C101.5 86.1716 102.172 85.5 103 85.5Z" stroke="#5B3C7C" stroke-opacity="0.5"/>
<path opacity="0.5" d="M103 86.5H108C108.276 86.5 108.5 86.7239 108.5 87V110C108.5 110.276 108.276 110.5 108 110.5H103C102.724 110.5 102.5 110.276 102.5 110V87C102.5 86.7239 102.724 86.5 103 86.5Z" stroke="url(#paint3_linear)" stroke-linecap="round" stroke-linejoin="round"/>
<path d="M101 65C101 63.8954 101.895 63 103 63H108C109.105 63 110 63.8954 110 65V88C110 89.1046 109.105 90 108 90H103C101.895 90 101 89.1046 101 88V65Z" fill="black" fill-opacity="0.15"/>
<path d="M101 65C101 63.8954 101.895 63 103 63H108C109.105 63 110 63.8954 110 65V88C110 89.1046 109.105 90 108 90H103C101.895 90 101 89.1046 101 88V65Z" fill="black" fill-opacity="0.15"/>
<path d="M108 62.5H103C101.619 62.5 100.5 63.6193 100.5 65V88C100.5 89.3807 101.619 90.5 103 90.5H108C109.381 90.5 110.5 89.3807 110.5 88V65C110.5 63.6193 109.381 62.5 108 62.5Z" stroke="black" stroke-opacity="0.07"/>
<path d="M101 64C101 62.8954 101.895 62 103 62H108C109.105 62 110 62.8954 110 64V87C110 88.1046 109.105 89 108 89H103C101.895 89 101 88.1046 101 87V64Z" fill="#F0DB4F"/>
<path d="M103 62.5H108C108.828 62.5 109.5 63.1716 109.5 64V87C109.5 87.8284 108.828 88.5 108 88.5H103C102.172 88.5 101.5 87.8284 101.5 87V64C101.5 63.1716 102.172 62.5 103 62.5Z" stroke="#A59738" stroke-opacity="0.5"/>
<path opacity="0.5" d="M103 63.5H108C108.276 63.5 108.5 63.7239 108.5 64V87C108.5 87.2761 108.276 87.5 108 87.5H103C102.724 87.5 102.5 87.2761 102.5 87V64C102.5 63.7239 102.724 63.5 103 63.5Z" stroke="url(#paint4_linear)" stroke-linecap="round" stroke-linejoin="round"/>
<path d="M101 42C101 40.8954 101.895 40 103 40H108C109.105 40 110 40.8954 110 42V65C110 66.1046 109.105 67 108 67H103C101.895 67 101 66.1046 101 65V42Z" fill="black" fill-opacity="0.15"/>
<path d="M101 42C101 40.8954 101.895 40 103 40H108C109.105 40 110 40.8954 110 42V65C110 66.1046 109.105 67 108 67H103C101.895 67 101 66.1046 101 65V42Z" fill="black" fill-opacity="0.15"/>
<path d="M108 39.5H103C101.619 39.5 100.5 40.6193 100.5 42V65C100.5 66.3807 101.619 67.5 103 67.5H108C109.381 67.5 110.5 66.3807 110.5 65V42C110.5 40.6193 109.381 39.5 108 39.5Z" stroke="black" stroke-opacity="0.07"/>
<path d="M101 41C101 39.8954 101.895 39 103 39H108C109.105 39 110 39.8954 110 41V64C110 65.1046 109.105 66 108 66H103C101.895 66 101 65.1046 101 64V41Z" fill="#4F98D2"/>
<path d="M103 39.5H108C108.828 39.5 109.5 40.1716 109.5 41V64C109.5 64.8284 108.828 65.5 108 65.5H103C102.172 65.5 101.5 64.8284 101.5 64V41C101.5 40.1716 102.172 39.5 103 39.5Z" stroke="#2E597C" stroke-opacity="0.5"/>
<path opacity="0.5" d="M102.5 40.5H108.5V64C108.5 64.2761 108.276 64.5 108 64.5H103C102.724 64.5 102.5 64.2761 102.5 64V40.5Z" stroke="url(#paint5_linear)" stroke-linecap="round" stroke-linejoin="round"/>
<path d="M101 17H108C109.105 17 110 17.8954 110 19V42C110 43.1046 109.105 44 108 44H101V17Z" fill="black" fill-opacity="0.15"/>
<path d="M101 17H108C109.105 17 110 17.8954 110 19V42C110 43.1046 109.105 44 108 44H101V17Z" fill="black" fill-opacity="0.15"/>
<path d="M101 16.5H100.5V17V44V44.5H101H108C109.381 44.5 110.5 43.3807 110.5 42V19C110.5 17.6193 109.381 16.5 108 16.5H101Z" stroke="black" stroke-opacity="0.07"/>
<path d="M101 16H108C109.105 16 110 16.8954 110 18V41C110 42.1046 109.105 43 108 43H101V16Z" fill="#403757"/>
<path d="M101.5 16.5H108C108.828 16.5 109.5 17.1716 109.5 18V41C109.5 41.8284 108.828 42.5 108 42.5H101.5V16.5Z" stroke="#231E2F" stroke-opacity="0.5"/>
<path opacity="0.5" d="M102.5 17.5H108C108.276 17.5 108.5 17.7239 108.5 18V41C108.5 41.2761 108.276 41.5 108 41.5H102.5V17.5Z" stroke="url(#paint6_linear)" stroke-linecap="round" stroke-linejoin="round"/>
<mask id="path-27-outside-1" maskUnits="userSpaceOnUse" x="25" y="0" width="76" height="11" fill="black">
<rect fill="white" x="25" width="76" height="11"/>
<path d="M100 10C99.3127 7.61747 97.3796 4.27227 97 2H27L29.4153 9.21093"/>
</mask>
<path d="M100 10C99.3127 7.61747 97.3796 4.27227 97 2H27L29.4153 9.21093" fill="url(#paint7_linear)"/>
<path d="M97 2L98.0035 1.83235C97.9216 1.34195 97.4972 0.982602 97 0.982602V2ZM27 2V0.982602C26.6727 0.982602 26.3654 1.14006 26.1742 1.40572C25.983 1.67137 25.9313 2.01278 26.0353 2.32313L27 2ZM100.978 9.71799C100.61 8.44525 99.9164 6.92995 99.3176 5.55297C98.691 4.11186 98.1691 2.82345 98.0035 1.83235L95.9965 2.16765C96.2106 3.44882 96.8449 4.96915 97.4516 6.36434C98.0861 7.82365 98.7023 9.17222 99.0225 10.282L100.978 9.71799ZM97 0.982602H27V3.0174H97V0.982602ZM26.0353 2.32313L28.4506 9.53406L30.38 8.8878L27.9647 1.67687L26.0353 2.32313Z" fill="url(#paint8_linear)" mask="url(#path-27-outside-1)"/>
<mask id="path-29-inside-2" fill="white">
<path d="M31 13H20.6C19.1158 13 18 12.873 18 12.7073V3.82128C18 1.70942 18.644 1 20.5468 1H31"/>
</mask>
<path d="M31 13H20.6C19.1158 13 18 12.873 18 12.7073V3.82128C18 1.70942 18.644 1 20.5468 1H31" fill="url(#paint9_linear)"/>
<path d="M31 14C31.5523 14 32 13.5523 32 13C32 12.4477 31.5523 12 31 12V14ZM31 2C31.5523 2 32 1.55228 32 1C32 0.447715 31.5523 5.96046e-08 31 5.96046e-08V2ZM31 12H20.6V14H31V12ZM20.6 12C19.8808 12 19.2708 11.969 18.8557 11.9221C18.6411 11.8979 18.5159 11.8734 18.4631 11.8589C18.429 11.8494 18.4755 11.8578 18.5516 11.9019C18.5899 11.924 18.6823 11.9815 18.7745 12.0899C18.8732 12.2059 19 12.417 19 12.7073H17C17 13.3193 17.4867 13.5964 17.5501 13.633C17.693 13.7158 17.8383 13.7612 17.9319 13.787C18.1348 13.8429 18.3812 13.8812 18.6312 13.9095C19.145 13.9675 19.8349 14 20.6 14V12ZM19 12.7073V3.82128H17V12.7073H19ZM19 3.82128C19 2.80707 19.1687 2.43645 19.3018 2.28919C19.4074 2.17232 19.6737 2 20.5468 2V5.96046e-08C19.5172 5.96046e-08 18.51 0.182389 17.8179 0.948195C17.1533 1.68361 17 2.72363 17 3.82128H19ZM20.5468 2H31V5.96046e-08H20.5468V2Z" fill="url(#paint10_linear)" mask="url(#path-29-inside-2)"/>
<path opacity="0.9" d="M21.794 9.5H99.206C99.8708 9.5 100.5 10.1192 100.5 11.0003V116C100.5 116.881 99.8708 117.5 99.206 117.5H21.794C21.1292 117.5 20.5 116.881 20.5 116V11.0003C20.5 10.1192 21.1292 9.5 21.794 9.5Z" fill="url(#paint11_radial)" stroke="#0E141F"/>
<path d="M31 9C31 9 31 84.7925 31 118H20.2711C18.7869 118 18 117.125 18 115.62V9H31Z" fill="url(#paint12_linear)"/>
<path d="M30.5 9.5V9.52833V9.57084V9.61496V9.66066V9.70795V9.75683V9.80727V9.85929V9.91288V9.96802V10.0247V10.083V10.1428V10.2041V10.267V10.3314V10.3973V10.4647V10.5337V10.6041V10.6761V10.7495V10.8245V10.9009V10.9788V11.0582V11.1391V11.2214V11.3052V11.3904V11.4771V11.5652V11.6548V11.7458V11.8382V11.932V12.0273V12.124V12.2221V12.3216V12.4225V12.5247V12.6284V12.7334V12.8398V12.9476V13.0568V13.1673V13.2791V13.3924V13.5069V13.6228V13.74V13.8586V13.9784V14.0996V14.2221V14.3459V14.4711V14.5975V14.7251V14.8541V14.9844V15.1159V15.2487V15.3828V15.5181V15.6547V15.7925V15.9316V16.0719V16.2134V16.3562V16.5002V16.6454V16.7918V16.9394V17.0882V17.2382V17.3894V17.5418V17.6954V17.8501V18.006V18.1631V18.3213V18.4807V18.6413V18.8029V18.9657V19.1297V19.2947V19.4609V19.6282V19.7966V19.9662V20.1368V20.3085V20.4813V20.6552V20.8301V21.0062V21.1833V21.3614V21.5407V21.721V21.9023V22.0846V22.268V22.4525V22.6379V22.8244V23.0119V23.2004V23.3899V23.5804V23.7719V23.9644V24.1579V24.3523V24.5478V24.7442V24.9415V25.1398V25.3391V25.5393V25.7404V25.9425V26.1455V26.3495V26.5543V26.7601V26.9668V27.1744V27.3829V27.5922V27.8025V28.0137V28.2257V28.4386V28.6524V28.867V29.0825V29.2988V29.516V29.734V29.9529V30.1726V30.3931V30.6144V30.8365V31.0595V31.2832V31.5078V31.7332V31.9593V32.1862V32.4139V32.6424V32.8716V33.1016V33.3323V33.5638V33.7961V34.0291V34.2628V34.4972V34.7324V34.9683V35.2049V35.4422V35.6802V35.9189V36.1583V36.3984V36.6392V36.8807V37.1228V37.3656V37.609V37.8531V38.0979V38.3433V38.5893V38.836V39.0833V39.3312V39.5797V39.8289V40.0787V40.329V40.58V40.8315V41.0837V41.3364V41.5897V41.8436V42.098V42.353V42.6085V42.8646V43.1213V43.3784V43.6362V43.8944V44.1532V44.4124V44.6722V44.9325V45.1933V45.4546V45.7164V45.9787V46.2414V46.5047V46.7684V47.0325V47.2972V47.5622V47.8278V48.0938V48.3602V48.627V48.8943V49.162V49.4301V49.6986V49.9675V50.2369V50.5066V50.7767V51.0472V51.3181V51.5893V51.861V52.1329V52.4053V52.678V52.951V53.2244V53.4982V53.7722V54.0466V54.3213V54.5964V54.8717V55.1474V55.4233V55.6995V55.9761V56.2529V56.53V56.8074V57.085V57.3629V57.6411V57.9195V58.1981V58.477V58.7562V59.0356V59.3152V59.595V59.875V60.1553V60.4357V60.7164V60.9972V61.2783V61.5595V61.8409V62.1225V62.4042V62.6861V62.9682V63.2504V63.5328V63.8153V64.0979V64.3807V64.6636V64.9466V65.2297V65.513V65.7963V66.0798V66.3633V66.647V66.9307V67.2145V67.4983V67.7823V68.0663V68.3503V68.6344V68.9186V69.2028V69.487V69.7713V70.0556V70.3399V70.6242V70.9085V71.1929V71.4772V71.7615V72.0459V72.3302V72.6144V72.8987V73.1829V73.4671V73.7512V74.0353V74.3194V74.6033V74.8872V75.1711V75.4548V75.7385V76.0221V76.3056V76.5891V76.8724V77.1556V77.4387V77.7216V78.0045V78.2872V78.5698V78.8523V79.1346V79.4167V79.6987V79.9806V80.2623V80.5438V80.8251V81.1063V81.3872V81.668V81.9486V82.229V82.5091V82.7891V83.0688V83.3484V83.6276V83.9067V84.1855V84.4641V84.7424V85.0205V85.2983V85.5758V85.8531V86.1301V86.4068V86.6832V86.9594V87.2352V87.5107V87.7859V88.0609V88.3354V88.6097V88.8837V89.1573V89.4305V89.7034V89.976V90.2482V90.5201V90.7916V91.0627V91.3334V91.6038V91.8738V92.1433V92.4125V92.6813V92.9497V93.2176V93.4852V93.7523V94.019V94.2852V94.551V94.8164V95.0813V95.3457V95.6097V95.8733V96.1363V96.3989V96.661V96.9226V97.1837V97.4443V97.7044V97.964V98.2231V98.4817V98.7397V98.9972V99.2542V99.5107V99.7665V100.022V100.277V100.531V100.785V101.038V101.29V101.542V101.793V102.044V102.294V102.544V102.793V103.041V103.289V103.536V103.782V104.028V104.273V104.518V104.762V105.005V105.247V105.489V105.73V105.971V106.211V106.45V106.688V106.926V107.163V107.399V107.635V107.87V108.104V108.338V108.57V108.802V109.034V109.264V109.494V109.723V109.951V110.178V110.405V110.631V110.856V111.08V111.303V111.526V111.748V111.969V112.189V112.409V112.627V112.845V113.062V113.278V113.493V113.707V113.921V114.133V114.345V114.556V114.766V114.975V115.183V115.39V115.596V115.802V116.006V116.21V116.413V116.614V116.815V117.015V117.214V117.412V117.5H20.2711C19.6281 117.5 19.2075 117.313 18.9434 117.032C18.6747 116.746 18.5 116.29 18.5 115.62V9.5H30.5Z" stroke="#3D211B" stroke-opacity="0.8"/>
<path opacity="0.5" d="M19.5 10.5H99.1099C99.2722 10.5 99.5 10.6675 99.5 11V116C99.5 116.332 99.2722 116.5 99.1099 116.5H19.8901C19.7278 116.5 19.5 116.332 19.5 116V11V10.5Z" stroke="url(#paint13_linear)" stroke-linecap="round" stroke-linejoin="round"/>
<path d="M50.9304 100H56.2377M37 26H42.2079H37ZM42.9519 26H47.7878H42.9519ZM48.5662 26H52.8813H48.5662ZM53.5908 26H55.4508H53.5908ZM56.1948 26H60.3611H56.1948ZM61.1794 26H72.116H61.1794ZM72.86 26H81.1926H72.86ZM81.9366 26H84.4661H81.9366ZM37 31H45.075H37ZM46.0145 31H49.873H46.0145ZM50.5862 31H52.4903H50.5862ZM53.265 31H56.8192H53.265ZM57.5632 31H61.2082H57.5632ZM61.8962 31H67.6197H61.8962ZM68.3637 31H75.9144H68.3637ZM37 35.9734H43.8347H37ZM44.5527 35.9734H55.8089H44.5527ZM56.4987 35.9734H61.9577H56.4987ZM62.6574 35.9734H67.7642H62.6574ZM68.4966 35.9734H72.8469H68.4966ZM73.5466 35.9734L80.3884 36.0266L73.5466 35.9734ZM37 41H46.5028H37ZM47.2491 41H57.5198H47.2491ZM58.2294 41H62.2654H58.2294ZM63.0094 41H72.616H63.0094ZM73.2626 41H79.8469H73.2626ZM80.5909 41H83.1969H80.5909ZM83.9409 41H85.3824H83.9409ZM37 46H40.5472H37ZM41.637 46H54.7711H41.637ZM37 73H45.075H37ZM46.0145 73H49.873H46.0145ZM50.5862 73H52.4903H50.5862ZM53.265 73H56.8192H53.265ZM57.5632 73H61.2082H57.5632ZM61.8962 73H67.6197H61.8962ZM37 83.9182H43.8347H37ZM44.5527 83.9182H55.8089H44.5527ZM56.4987 83.9182H61.9577H56.4987ZM81.2486 84.0818H92.3985H81.2486ZM37 68H46.5028H37ZM47.2491 68H57.5198H47.2491ZM58.2294 68H62.2654H58.2294ZM63.0094 68H72.616H63.0094ZM37 57H42.2079H37ZM42.9519 57H47.7878H42.9519ZM48.5662 57H52.8813H48.5662ZM53.5908 57H55.4508H53.5908ZM56.1948 57H60.3611H56.1948ZM61.1794 57H72.116H61.1794ZM72.86 57H81.1926H72.86ZM37 63H45.7707H37ZM46.4606 63H55.7741H46.4606ZM56.4836 63H60.1255H56.4836ZM60.8131 63H69.575H60.8131ZM70.2779 63H79.8469H70.2779ZM37 89H45.1961H37ZM46.0759 89H49.6893H46.0759ZM50.5357 89H52.338H50.5357ZM52.9117 89H56.4695H52.9117ZM56.9418 89H75.7775H56.9418ZM76.6638 89H81.6919H76.6638ZM82.3679 89H83.6375H82.3679ZM46.3374 95H49.0109H46.3374ZM37 95H45.5547H37ZM49.6947 95H55.9153H49.6947ZM56.5733 95H65.7048H56.5733ZM66.4143 95H72.609H66.4143ZM73.2325 95H74.509H73.2325ZM75.207 95H83.0731H75.207ZM83.8773 95H87.9956H83.8773ZM46.3374 100H50.1123H46.3374ZM37 100H45.5547H37Z" stroke="#657B83"/>
<path d="M56.5733 95H65.7048M37 35.9734H43.8347H37ZM83.9409 41H85.3824H83.9409ZM37 73H45.075H37ZM37 57H42.2079H37ZM56.4836 63H60.1255H56.4836Z" stroke="#D33682"/>
<path d="M72.86 57H81.1926M56.1948 26H60.3611H56.1948ZM68.3637 31H75.9144H68.3637ZM61.8962 73H67.6198H61.8962Z" stroke="#268BD2"/>
<path d="M46.3374 100H50.1123M37 26H42.2079H37ZM63.0094 41H72.616H63.0094ZM53.265 73H56.8192H53.265ZM63.0094 68H72.616H63.0094ZM42.9519 57H47.7878H42.9519Z" stroke="#859900"/>
<path d="M52.75 43C49.4979 43 47.7741 43.5888 46.1406 44.8047C44.5221 46.0042 43.75 47.9134 43.75 50.4766V58.125C43.75 59.6531 43.1922 60.7208 42.2031 61.4766C41.229 62.216 39.0232 62.6797 37 62.6797V67.3203C40.9864 67.3203 43.75 68.9048 43.75 71.9609V78.9219C43.75 81.7315 44.4864 83.8606 46 85.1094C47.5286 86.3745 49.2881 86.9671 52.75 87V82.5312C51.0265 82.4984 50.1393 82.1042 49.375 81.4141C48.6107 80.724 48.25 79.7536 48.25 78.4062V71.0156C48.25 67.713 46.9007 65.7634 43.4688 65.1719V64.8281C46.9007 64.1873 48.25 62.1682 48.25 58.8984V51.5938C48.25 50.2464 48.6107 49.3456 49.375 48.6719C50.1543 47.9818 51.0415 47.5509 52.75 47.4688V43ZM75.25 43V47.4688C76.9585 47.5509 77.8457 47.9818 78.625 48.6719C79.3893 49.3456 79.75 50.2464 79.75 51.5938V58.8984C79.75 62.1682 81.0993 64.1873 84.5312 64.8281V65.1719C81.0993 65.7634 79.75 67.713 79.75 71.0156V78.4062C79.75 79.7536 79.3893 80.724 78.625 81.4141C77.8607 82.1042 76.9735 82.4984 75.25 82.5312V87C78.7119 86.9671 80.4714 86.3745 82 85.1094C83.5136 83.8606 84.25 81.7315 84.25 78.9219V71.9609C84.25 68.9048 87.0136 67.3203 91 67.3203V62.6797C88.9768 62.6797 86.771 62.216 85.7969 61.4766C84.8078 60.7208 84.25 59.6531 84.25 58.125V50.4766C84.25 47.9134 83.4779 46.0042 81.8594 44.8047C80.2259 43.5888 78.5021 43 75.25 43Z" fill="black" fill-opacity="0.6" stroke="black" stroke-opacity="0.15" stroke-width="5"/>
<path d="M52.75 45C49.4979 45 47.7741 45.5888 46.1406 46.8047C44.5221 48.0042 43.75 49.9134 43.75 52.4766V60.125C43.75 61.6531 43.1922 62.7208 42.2031 63.4766C41.229 64.216 39.0232 64.6797 37 64.6797V69.3203C40.9864 69.3203 43.75 70.9048 43.75 73.9609V80.9219C43.75 83.7315 44.4864 85.8606 46 87.1094C47.5286 88.3745 49.2881 88.9671 52.75 89V84.5312C51.0265 84.4984 50.1393 84.1042 49.375 83.4141C48.6107 82.724 48.25 81.7536 48.25 80.4062V73.0156C48.25 69.713 46.9007 67.7634 43.4688 67.1719V66.8281C46.9007 66.1873 48.25 64.1682 48.25 60.8984V53.5938C48.25 52.2464 48.6107 51.3456 49.375 50.6719C50.1543 49.9818 51.0415 49.5509 52.75 49.4688V45ZM75.25 45V49.4688C76.9585 49.5509 77.8457 49.9818 78.625 50.6719C79.3893 51.3456 79.75 52.2464 79.75 53.5938V60.8984C79.75 64.1682 81.0993 66.1873 84.5312 66.8281V67.1719C81.0993 67.7634 79.75 69.713 79.75 73.0156V80.4062C79.75 81.7536 79.3893 82.724 78.625 83.4141C77.8607 84.1042 76.9735 84.4984 75.25 84.5312V89C78.7119 88.9671 80.4714 88.3745 82 87.1094C83.5136 85.8606 84.25 83.7315 84.25 80.9219V73.9609C84.25 70.9048 87.0136 69.3203 91 69.3203V64.6797C88.9768 64.6797 86.771 64.216 85.7969 63.4766C84.8078 62.7208 84.25 61.6531 84.25 60.125V52.4766C84.25 49.9134 83.4779 48.0042 81.8594 46.8047C80.2259 45.5888 78.5021 45 75.25 45Z" stroke="black" stroke-opacity="0.07" stroke-width="10"/>
<path d="M52.75 41C49.4979 41 47.7741 41.5888 46.1406 42.8047C44.5221 44.0042 43.75 45.9134 43.75 48.4766V56.125C43.75 57.6531 43.1922 58.7208 42.2031 59.4766C41.229 60.216 39.0232 60.6797 37 60.6797V65.3203C40.9864 65.3203 43.75 66.9048 43.75 69.9609V76.9219C43.75 79.7315 44.4864 81.8606 46 83.1094C47.5286 84.3745 49.2881 84.9671 52.75 85V80.5312C51.0265 80.4984 50.1393 80.1042 49.375 79.4141C48.6107 78.724 48.25 77.7536 48.25 76.4062V69.0156C48.25 65.713 46.9007 63.7634 43.4688 63.1719V62.8281C46.9007 62.1873 48.25 60.1682 48.25 56.8984V49.5938C48.25 48.2464 48.6107 47.3456 49.375 46.6719C50.1543 45.9818 51.0415 45.5509 52.75 45.4688V41ZM75.25 41V45.4688C76.9585 45.5509 77.8457 45.9818 78.625 46.6719C79.3893 47.3456 79.75 48.2464 79.75 49.5938V56.8984C79.75 60.1682 81.0993 62.1873 84.5312 62.8281V63.1719C81.0993 63.7634 79.75 65.713 79.75 69.0156V76.4062C79.75 77.7536 79.3893 78.724 78.625 79.4141C77.8607 80.1042 76.9735 80.4984 75.25 80.5312V85C78.7119 84.9671 80.4714 84.3745 82 83.1094C83.5136 81.8606 84.25 79.7315 84.25 76.9219V69.9609C84.25 66.9048 87.0136 65.3203 91 65.3203V60.6797C88.9768 60.6797 86.771 60.216 85.7969 59.4766C84.8078 58.7208 84.25 57.6531 84.25 56.125V48.4766C84.25 45.9134 83.4779 44.0042 81.8594 42.8047C80.2259 41.5888 78.5021 41 75.25 41Z" fill="url(#paint14_linear)"/>
<line x1="19" y1="5.5" x2="98" y2="5.5" stroke="#D4D4D4"/>
<line x1="19" y1="3.5" x2="97" y2="3.5" stroke="#D4D4D4"/>
<line x1="19" y1="7.5" x2="99" y2="7.5" stroke="#D4D4D4"/>
<defs>
<radialGradient id="paint0_radial" cx="0" cy="0" r="1" gradientUnits="userSpaceOnUse" gradientTransform="translate(103.033 116.5) scale(13.9738 6.5)">
<stop stop-color="#181818"/>
<stop offset="1" stop-color="#181818" stop-opacity="0"/>
</radialGradient>
<radialGradient id="paint1_radial" cx="0" cy="0" r="1" gradientUnits="userSpaceOnUse" gradientTransform="translate(24.9669 116.5) rotate(180) scale(13.9738 6.5)">
<stop stop-color="#181818"/>
<stop offset="1" stop-color="#181818" stop-opacity="0"/>
</radialGradient>
<linearGradient id="paint2_linear" x1="66.9515" y1="123.051" x2="66.9515" y2="109.999" gradientUnits="userSpaceOnUse">
<stop stop-color="#181818" stop-opacity="0"/>
<stop offset="0.5" stop-color="#181818"/>
<stop offset="1" stop-color="#181818" stop-opacity="0"/>
</linearGradient>
<linearGradient id="paint3_linear" x1="105.5" y1="85.6622" x2="105.5" y2="111.338" gradientUnits="userSpaceOnUse">
<stop stop-color="white"/>
<stop offset="0.0270648" stop-color="white" stop-opacity="0.235294"/>
<stop offset="0.97377" stop-color="white" stop-opacity="0.156863"/>
<stop offset="1" stop-color="white" stop-opacity="0.392157"/>
</linearGradient>
<linearGradient id="paint4_linear" x1="105.5" y1="62.6622" x2="105.5" y2="88.3378" gradientUnits="userSpaceOnUse">
<stop stop-color="white"/>
<stop offset="0.0270648" stop-color="white" stop-opacity="0.235294"/>
<stop offset="0.97377" stop-color="white" stop-opacity="0.156863"/>
<stop offset="1" stop-color="white" stop-opacity="0.392157"/>
</linearGradient>
<linearGradient id="paint5_linear" x1="105.5" y1="39.6622" x2="105.5" y2="65.3378" gradientUnits="userSpaceOnUse">
<stop stop-color="white"/>
<stop offset="0.0270648" stop-color="white" stop-opacity="0.235294"/>
<stop offset="0.97377" stop-color="white" stop-opacity="0.156863"/>
<stop offset="1" stop-color="white" stop-opacity="0.392157"/>
</linearGradient>
<linearGradient id="paint6_linear" x1="105.5" y1="16.6622" x2="105.5" y2="42.3378" gradientUnits="userSpaceOnUse">
<stop stop-color="white"/>
<stop offset="0.0270648" stop-color="white" stop-opacity="0.235294"/>
<stop offset="0.97377" stop-color="white" stop-opacity="0.156863"/>
<stop offset="1" stop-color="white" stop-opacity="0.392157"/>
</linearGradient>
<linearGradient id="paint7_linear" x1="65.3572" y1="2.63465" x2="65.4312" y2="9.13786" gradientUnits="userSpaceOnUse">
<stop stop-color="#F5F5F5"/>
<stop offset="1" stop-color="#E1E1E1"/>
</linearGradient>
<linearGradient id="paint8_linear" x1="18.6756" y1="0.791303" x2="101.465" y2="0.791303" gradientUnits="userSpaceOnUse">
<stop stop-color="#0E9A83"/>
<stop offset="0.95971" stop-color="#0E9A83"/>
<stop offset="0.963265" stop-color="#C2C2C2"/>
<stop offset="1" stop-color="#C2C2C2"/>
</linearGradient>
<linearGradient id="paint9_linear" x1="28.8005" y1="2.49994" x2="28.8005" y2="8.49997" gradientUnits="userSpaceOnUse">
<stop stop-color="#F5F5F5"/>
<stop offset="1" stop-color="#E1E1E1"/>
</linearGradient>
<linearGradient id="paint10_linear" x1="68.7" y1="13.1538" x2="68.7" y2="0.815076" gradientUnits="userSpaceOnUse">
<stop stop-color="#272727"/>
<stop offset="1" stop-color="#454545"/>
</linearGradient>
<radialGradient id="paint11_radial" cx="0" cy="0" r="1" gradientUnits="userSpaceOnUse" gradientTransform="translate(62.4117 -28.9832) rotate(90) scale(296.119 339.87)">
<stop stop-color="#206A7C"/>
<stop offset="0.26238" stop-color="#073642"/>
<stop offset="0.704952" stop-color="#002B36"/>
<stop offset="1" stop-color="#00161C"/>
</radialGradient>
<linearGradient id="paint12_linear" x1="24.5" y1="9" x2="24.5" y2="118" gradientUnits="userSpaceOnUse">
<stop stop-color="#8A715E"/>
<stop offset="1" stop-color="#57392D"/>
</linearGradient>
<linearGradient id="paint13_linear" x1="59.5" y1="8.55405" x2="59.5" y2="118.446" gradientUnits="userSpaceOnUse">
<stop stop-color="white"/>
<stop offset="0.0270648" stop-color="white" stop-opacity="0.235294"/>
<stop offset="0.97377" stop-color="white" stop-opacity="0.156863"/>
<stop offset="1" stop-color="white" stop-opacity="0.392157"/>
</linearGradient>
<linearGradient id="paint14_linear" x1="55.5625" y1="41" x2="41.6758" y2="111.84" gradientUnits="userSpaceOnUse">
<stop stop-color="#FAFAFA"/>
<stop offset="1" stop-color="#D4D4D4"/>
</linearGradient>
</defs>
</svg>
