<svg width="16" height="16" viewBox="0 0 16 16" fill="none" xmlns="http://www.w3.org/2000/svg">
<g clip-path="url(#clip0)">
<g opacity="0.4">
<path opacity="0.4" d="M14.5 15.125H12.7566V16.75H14.5V15.125Z" fill="url(#paint0_radial)"/>
<path opacity="0.4" d="M1.24999 16.75H2.99341V15.125H1.24999V16.75Z" fill="url(#paint1_radial)"/>
<path opacity="0.4" d="M12.7566 15.125H2.99341V16.75H12.7566V15.125Z" fill="url(#paint2_linear)"/>
</g>
<path d="M13 11H14C14.5523 11 15 11.4477 15 12V14C15 14.5523 14.5523 15 14 15H13V11Z" fill="#A56DE2"/>
<path d="M13 9H14C14.5523 9 15 9.44772 15 10V12C15 12.5523 14.5523 13 14 13H13V9Z" fill="#F0DB4F"/>
<path d="M13 6H14C14.5523 6 15 6.44772 15 7V9C15 9.55228 14.5523 10 14 10H13V6Z" fill="#4F98D2"/>
<path d="M13 3H14C14.5523 3 15 3.44772 15 4V6C15 6.55228 14.5523 7 14 7H13V3Z" fill="#403757"/>
<mask id="path-8-outside-1" maskUnits="userSpaceOnUse" x="2" y="0" width="11" height="4" fill="black">
<rect fill="white" x="2" width="11" height="4"/>
<path d="M12 3C11.9153 2.40437 11.6769 1.56807 11.6301 1H3L3.29777 2.80273"/>
</mask>
<path d="M12 3C11.9153 2.40437 11.6769 1.56807 11.6301 1H3L3.29777 2.80273" fill="url(#paint3_linear)"/>
<path d="M11.6301 1L12.6268 0.917888C12.584 0.399197 12.1506 0 11.6301 0V1ZM3 1V0C2.7063 0 2.42745 0.129112 2.23745 0.353073C2.04745 0.577034 1.9655 0.873198 2.01337 1.16297L3 1ZM12.99 2.85915C12.9413 2.51686 12.8498 2.1119 12.7786 1.78C12.7005 1.41568 12.644 1.1271 12.6268 0.917888L10.6335 1.08211C10.6631 1.44097 10.7491 1.85457 10.8231 2.19933C10.9039 2.5765 10.9739 2.88751 11.01 3.14085L12.99 2.85915ZM11.6301 0H3V2H11.6301V0ZM2.01337 1.16297L2.31114 2.9657L4.2844 2.63976L3.98663 0.837029L2.01337 1.16297Z" fill="url(#paint4_linear)" mask="url(#path-8-outside-1)"/>
<mask id="path-10-inside-2" fill="white">
<path d="M5 3H2.6C2.25749 3 2 2.96825 2 2.92683V0.705319C2 0.177355 2.14862 0 2.58773 0H5"/>
</mask>
<path d="M5 3H2.6C2.25749 3 2 2.96825 2 2.92683V0.705319C2 0.177355 2.14862 0 2.58773 0H5" fill="url(#paint5_linear)"/>
<path d="M5 4C5.55228 4 6 3.55228 6 3C6 2.44772 5.55228 2 5 2V4ZM5 1C5.55228 1 6 0.552285 6 0C6 -0.552285 5.55228 -1 5 -1V1ZM5 2H2.6V4H5V2ZM2.6 2C2.45364 2 2.34685 1.99294 2.29301 1.98635C2.25877 1.98216 2.28091 1.98238 2.33156 1.9975C2.3495 2.00285 2.43804 2.02888 2.54281 2.09454C2.59642 2.12815 2.69576 2.19756 2.78943 2.31683C2.88963 2.44441 3 2.65315 3 2.92683H1C1 3.48426 1.41717 3.7494 1.48066 3.78919C1.60084 3.86452 1.71218 3.89982 1.75961 3.91397C1.86925 3.94669 1.97716 3.96262 2.05011 3.97154C2.21064 3.99119 2.40385 4 2.6 4V2ZM3 2.92683V0.705319H1V2.92683H3ZM3 0.705319C3 0.61303 3.00722 0.58525 3.00489 0.595439C3.00162 0.609715 2.97955 0.696403 2.89708 0.795261C2.80735 0.902826 2.70002 0.960611 2.6229 0.985959C2.561 1.00631 2.53672 1 2.58773 1V-1C2.2708 -1 1.7419 -0.942127 1.36131 -0.485915C1.02697 -0.0851326 1 0.410177 1 0.705319H3ZM2.58773 1H5V-1H2.58773V1Z" fill="url(#paint6_linear)" mask="url(#path-10-inside-2)"/>
<path opacity="0.9" d="M3.5 15.5V2.5H12.5V15.5H3.5Z" fill="url(#paint7_radial)" stroke="#0E141F"/>
<path d="M5 2C5 2 5 11.7348 5 16H2.52411C2.1816 16 2 15.8876 2 15.6943V2H5Z" fill="url(#paint8_linear)"/>
<path d="M4.5 2.5V2.50703V2.52105V2.53525V2.54961V2.56416V2.57887V2.59375V2.60881V2.62404V2.63943V2.655V2.67073V2.68664V2.7027V2.71894V2.73534V2.75191V2.76864V2.78553V2.80259V2.81981V2.83719V2.85473V2.87243V2.89029V2.90832V2.92649V2.94483V2.96332V2.98197V3.00078V3.01974V3.03885V3.05812V3.07754V3.09711V3.11684V3.13671V3.15674V3.17691V3.19724V3.21771V3.23833V3.25909V3.28V3.30106V3.32226V3.34361V3.36509V3.38672V3.4085V3.43041V3.45247V3.47466V3.49699V3.51947V3.54208V3.56483V3.58771V3.61073V3.63388V3.65717V3.6806V3.70415V3.72784V3.75166V3.77561V3.79969V3.82391V3.84825V3.87271V3.89731V3.92203V3.94688V3.97186V3.99696V4.02218V4.04753V4.073V4.0986V4.12431V4.15015V4.1761V4.20218V4.22837V4.25469V4.28111V4.30766V4.33432V4.3611V4.38799V4.415V4.44212V4.46935V4.4967V4.52416V4.55172V4.5794V4.60719V4.63508V4.66308V4.69119V4.71941V4.74773V4.77616V4.80469V4.83333V4.86207V4.89091V4.91985V4.9489V4.97804V5.00729V5.03663V5.06608V5.09562V5.12525V5.15499V5.18482V5.21474V5.24476V5.27487V5.30508V5.33538V5.36577V5.39625V5.42682V5.45748V5.48823V5.51907V5.54999V5.581V5.6121V5.64328V5.67455V5.70591V5.73734V5.76886V5.80046V5.83214V5.86391V5.89575V5.92767V5.95967V5.99175V6.02391V6.05614V6.08845V6.12084V6.1533V6.18583V6.21844V6.25112V6.28387V6.31669V6.34958V6.38255V6.41558V6.44868V6.48185V6.51508V6.54839V6.58175V6.61519V6.64868V6.68225V6.71587V6.74956V6.78331V6.81711V6.85098V6.88491V6.9189V6.95295V6.98705V7.02122V7.05543V7.08971V7.12403V7.15842V7.19285V7.22734V7.26188V7.29648V7.33112V7.36581V7.40056V7.43535V7.47019V7.50508V7.54001V7.57499V7.61002V7.64509V7.6802V7.71536V7.75056V7.78581V7.82109V7.85641V7.89178V7.92718V7.96263V7.99811V8.03362V8.06918V8.10477V8.1404V8.17605V8.21175V8.24748V8.28324V8.31903V8.35485V8.3907V8.42659V8.4625V8.49844V8.53441V8.5704V8.60642V8.64247V8.67854V8.71464V8.75076V8.7869V8.82307V8.85926V8.89546V8.93169V8.96794V9.00421V9.04049V9.07679V9.11311V9.14945V9.1858V9.22217V9.25855V9.29494V9.33135V9.36777V9.4042V9.44064V9.47709V9.51355V9.55002V9.58649V9.62298V9.65947V9.69597V9.73247V9.76897V9.80549V9.842V9.87852V9.91503V9.95155V9.98808V10.0246V10.0611V10.0976V10.1341V10.1707V10.2072V10.2437V10.2802V10.3167V10.3532V10.3896V10.4261V10.4626V10.499V10.5355V10.5719V10.6083V10.6448V10.6812V10.7176V10.7539V10.7903V10.8266V10.863V10.8993V10.9356V10.9719V11.0081V11.0444V11.0806V11.1168V11.153V11.1891V11.2252V11.2614V11.2974V11.3335V11.3695V11.4056V11.4415V11.4775V11.5134V11.5493V11.5852V11.621V11.6569V11.6926V11.7284V11.7641V11.7998V11.8354V11.871V11.9066V11.9422V11.9777V12.0131V12.0486V12.0839V12.1193V12.1546V12.1899V12.2251V12.2603V12.2954V12.3305V12.3656V12.4006V12.4356V12.4705V12.5053V12.5402V12.5749V12.6097V12.6443V12.679V12.7135V12.7481V12.7825V12.8169V12.8513V12.8856V12.9199V12.9541V12.9882V13.0223V13.0563V13.0903V13.1242V13.158V13.1918V13.2255V13.2592V13.2928V13.3263V13.3598V13.3932V13.4266V13.4598V13.4931V13.5262V13.5593V13.5923V13.6252V13.6581V13.6909V13.7236V13.7563V13.7888V13.8213V13.8538V13.8861V13.9184V13.9506V13.9827V14.0148V14.0468V14.0787V14.1105V14.1422V14.1739V14.2054V14.2369V14.2683V14.2996V14.3309V14.362V14.3931V14.4241V14.455V14.4858V14.5165V14.5471V14.5777V14.6081V14.6385V14.6687V14.6989V14.729V14.759V14.7888V14.8186V14.8483V14.8779V14.9074V14.9369V14.9662V14.9954V15.0245V15.0535V15.0824V15.1112V15.1399V15.1685V15.197V15.2254V15.2537V15.2818V15.3099V15.3379V15.3657V15.3935V15.4211V15.4486V15.476V15.5H2.52411C2.5157 15.5 2.50766 15.4999 2.5 15.4997V2.5H4.5Z" stroke="#3D211B" stroke-opacity="0.8"/>
<path d="M7.04167 6C6.6201 6.00001 6.39665 6.0803 6.1849 6.24609C5.97508 6.40966 5.875 6.67001 5.875 7.01953V8.0625C5.875 8.27088 5.8027 8.41647 5.67448 8.51953C5.5482 8.62036 5.26226 8.6836 5 8.68359V9.31641C5.51675 9.31641 5.875 9.53247 5.875 9.94922V10.8984C5.875 11.2816 5.97045 11.5719 6.16667 11.7422C6.36482 11.9147 6.5929 11.9955 7.04167 12V11.3906C6.81826 11.3861 6.70324 11.3324 6.60417 11.2383C6.50509 11.1442 6.45833 11.0119 6.45833 10.8281V9.82031C6.45833 9.36996 6.28342 9.1041 5.83854 9.02344V8.97656C6.28342 8.88918 6.45833 8.61384 6.45833 8.16797V7.17188C6.45833 6.98815 6.50509 6.8653 6.60417 6.77344C6.70519 6.67934 6.8202 6.62058 7.04167 6.60938V6ZM9.95833 6V6.60938C10.1798 6.62058 10.2948 6.67934 10.3958 6.77344C10.4949 6.86531 10.5417 6.98815 10.5417 7.17188V8.16797C10.5417 8.61384 10.7166 8.88918 11.1615 8.97656V9.02344C10.7166 9.1041 10.5417 9.36996 10.5417 9.82031V10.8281C10.5417 11.0119 10.4949 11.1442 10.3958 11.2383C10.2968 11.3324 10.1817 11.3861 9.95833 11.3906V12C10.4071 11.9955 10.6352 11.9147 10.8333 11.7422C11.0295 11.5719 11.125 11.2816 11.125 10.8984V9.94922C11.125 9.53247 11.4832 9.31641 12 9.31641V8.68359C11.7377 8.6836 11.4518 8.62036 11.3255 8.51953C11.1973 8.41647 11.125 8.27088 11.125 8.0625V7.01953C11.125 6.67001 11.0249 6.40966 10.8151 6.24609C10.6034 6.0803 10.3799 6.00001 9.95833 6Z" fill="url(#paint9_linear)"/>
</g>
<defs>
<radialGradient id="paint0_radial" cx="0" cy="0" r="1" gradientUnits="userSpaceOnUse" gradientTransform="translate(12.7541 15.9375) scale(1.74672 0.8125)">
<stop stop-color="#181818"/>
<stop offset="1" stop-color="#181818" stop-opacity="0"/>
</radialGradient>
<radialGradient id="paint1_radial" cx="0" cy="0" r="1" gradientUnits="userSpaceOnUse" gradientTransform="translate(2.99586 15.9375) rotate(180) scale(1.74672 0.8125)">
<stop stop-color="#181818"/>
<stop offset="1" stop-color="#181818" stop-opacity="0"/>
</radialGradient>
<linearGradient id="paint2_linear" x1="8.24393" y1="16.7564" x2="8.24393" y2="15.1249" gradientUnits="userSpaceOnUse">
<stop stop-color="#181818" stop-opacity="0"/>
<stop offset="0.5" stop-color="#181818"/>
<stop offset="1" stop-color="#181818" stop-opacity="0"/>
</linearGradient>
<linearGradient id="paint3_linear" x1="7.72897" y1="1.15866" x2="7.76649" y2="2.78381" gradientUnits="userSpaceOnUse">
<stop stop-color="#F5F5F5"/>
<stop offset="1" stop-color="#E1E1E1"/>
</linearGradient>
<linearGradient id="paint4_linear" x1="1.9737" y1="0.697826" x2="12.1806" y2="0.697826" gradientUnits="userSpaceOnUse">
<stop stop-color="#0E9A83"/>
<stop offset="0.95971" stop-color="#0E9A83"/>
<stop offset="0.963265" stop-color="#C2C2C2"/>
<stop offset="1" stop-color="#C2C2C2"/>
</linearGradient>
<linearGradient id="paint5_linear" x1="4.49243" y1="0.374984" x2="4.49243" y2="1.87499" gradientUnits="userSpaceOnUse">
<stop stop-color="#F5F5F5"/>
<stop offset="1" stop-color="#E1E1E1"/>
</linearGradient>
<linearGradient id="paint6_linear" x1="13.7" y1="3.03846" x2="13.7" y2="-0.046231" gradientUnits="userSpaceOnUse">
<stop stop-color="#272727"/>
<stop offset="1" stop-color="#454545"/>
</linearGradient>
<radialGradient id="paint7_radial" cx="0" cy="0" r="1" gradientUnits="userSpaceOnUse" gradientTransform="translate(8.23601 -2.87857) rotate(90) scale(38.0336 41.9592)">
<stop stop-color="#206A7C"/>
<stop offset="0.26238" stop-color="#073642"/>
<stop offset="0.704952" stop-color="#002B36"/>
<stop offset="1" stop-color="#00161C"/>
</radialGradient>
<linearGradient id="paint8_linear" x1="3.5" y1="2" x2="3.5" y2="16" gradientUnits="userSpaceOnUse">
<stop stop-color="#8A715E"/>
<stop offset="1" stop-color="#57392D"/>
</linearGradient>
<linearGradient id="paint9_linear" x1="7.40625" y1="6" x2="5.42206" y2="15.6221" gradientUnits="userSpaceOnUse">
<stop stop-color="#FAFAFA"/>
<stop offset="1" stop-color="#D4D4D4"/>
</linearGradient>
<clipPath id="clip0">
<rect width="16" height="16" fill="white"/>
</clipPath>
</defs>
</svg>
