<svg width="32" height="32" viewBox="0 0 32 32" fill="none" xmlns="http://www.w3.org/2000/svg">
<g opacity="0.4">
<path opacity="0.4" d="M29 28.25H25.5132V31.5H29V28.25Z" fill="url(#paint0_radial)"/>
<path opacity="0.4" d="M2.49997 31.5H5.98682V28.25H2.49997V31.5Z" fill="url(#paint1_radial)"/>
<path opacity="0.4" d="M25.5131 28.25H5.98682V31.5H25.5131V28.25Z" fill="url(#paint2_linear)"/>
</g>
<path d="M25.6667 23.6667C25.6667 22.7462 26.4129 22 27.3334 22V22C28.2538 22 29 22.7462 29 23.6667V27C29 27.9205 28.2538 28.6667 27.3334 28.6667V28.6667C26.4129 28.6667 25.6667 27.9205 25.6667 27V23.6667Z" fill="black" fill-opacity="0.15"/>
<path d="M29.5 27V23.6667C29.5 22.4701 28.53 21.5 27.3334 21.5C26.1367 21.5 25.1667 22.47 25.1667 23.6667V27C25.1667 28.1966 26.1367 29.1667 27.3334 29.1667C28.53 29.1667 29.5 28.1966 29.5 27Z" stroke="black" stroke-opacity="0.07"/>
<path d="M25.6667 23.6667C25.6667 22.7462 26.4129 22 27.3334 22V22C28.2538 22 29 22.7462 29 23.6667V27C29 27.9205 28.2538 28.6667 27.3334 28.6667V28.6667C26.4129 28.6667 25.6667 27.9205 25.6667 27V23.6667Z" fill="#A56DE2"/>
<path d="M28.5 23.6667V27C28.5 27.6443 27.9777 28.1667 27.3334 28.1667C26.689 28.1667 26.1667 27.6443 26.1667 27V23.6667C26.1667 23.0223 26.689 22.5 27.3334 22.5C27.9777 22.5 28.5 23.0223 28.5 23.6667Z" stroke="#5B3C7C" stroke-opacity="0.5"/>
<path d="M25 17.625C25 17.0037 25.5037 16.5 26.125 16.5V16.5C26.7463 16.5 27.25 17.0037 27.25 17.625V22.125C27.25 22.7463 26.7463 23.25 26.125 23.25V23.25C25.5037 23.25 25 22.7463 25 22.125V17.625Z" fill="black" fill-opacity="0.15"/>
<path d="M25.6667 18.3333C25.6667 17.4128 26.4129 16.6666 27.3334 16.6666V16.6666C28.2538 16.6666 29 17.4128 29 18.3333V21C29 21.9204 28.2538 22.6666 27.3334 22.6666V22.6666C26.4129 22.6666 25.6667 21.9204 25.6667 21V18.3333Z" fill="black" fill-opacity="0.15"/>
<path d="M29.5 21V18.3333C29.5 17.1367 28.53 16.1666 27.3334 16.1666C26.1367 16.1666 25.1667 17.1367 25.1667 18.3333V21C25.1667 22.1966 26.1367 23.1666 27.3334 23.1666C28.53 23.1666 29.5 22.1966 29.5 21Z" stroke="black" stroke-opacity="0.07"/>
<path d="M25.6667 17.6667C25.6667 16.7462 26.4129 16 27.3334 16V16C28.2538 16 29 16.7462 29 17.6667V21C29 21.9205 28.2538 22.6667 27.3334 22.6667V22.6667C26.4129 22.6667 25.6667 21.9205 25.6667 21V17.6667Z" fill="#F0DB4F"/>
<path d="M28.5 17.6667V21C28.5 21.6443 27.9777 22.1667 27.3334 22.1667C26.689 22.1667 26.1667 21.6443 26.1667 21V17.6667C26.1667 17.0223 26.689 16.5 27.3334 16.5C27.9777 16.5 28.5 17.0223 28.5 17.6667Z" stroke="#A59738" stroke-opacity="0.5"/>
<path d="M25 11.875C25 11.2537 25.5037 10.75 26.125 10.75V10.75C26.7463 10.75 27.25 11.2537 27.25 11.875V16.375C27.25 16.9963 26.7463 17.5 26.125 17.5V17.5C25.5037 17.5 25 16.9963 25 16.375V11.875Z" fill="black" fill-opacity="0.15"/>
<path d="M25.6667 12.3333C25.6667 11.4128 26.4129 10.6666 27.3334 10.6666V10.6666C28.2538 10.6666 29 11.4128 29 12.3333V15.6666C29 16.5871 28.2538 17.3333 27.3334 17.3333V17.3333C26.4129 17.3333 25.6667 16.5871 25.6667 15.6666V12.3333Z" fill="black" fill-opacity="0.15"/>
<path d="M29.5 15.6666V12.3333C29.5 11.1367 28.53 10.1666 27.3334 10.1666C26.1367 10.1666 25.1667 11.1367 25.1667 12.3333V15.6666C25.1667 16.8632 26.1367 17.8333 27.3334 17.8333C28.53 17.8333 29.5 16.8632 29.5 15.6666Z" stroke="black" stroke-opacity="0.07"/>
<path d="M25.6667 12.3333C25.6667 11.4128 26.4129 10.6666 27.3334 10.6666V10.6666C28.2538 10.6666 29 11.4128 29 12.3333V15C29 15.9204 28.2538 16.6666 27.3334 16.6666V16.6666C26.4129 16.6666 25.6667 15.9204 25.6667 15V12.3333Z" fill="#4F98D2"/>
<path d="M28.5 12.3333V15C28.5 15.6443 27.9777 16.1666 27.3334 16.1666C26.689 16.1666 26.1667 15.6443 26.1667 15V12.3333C26.1667 11.689 26.689 11.1666 27.3334 11.1666C27.9777 11.1666 28.5 11.689 28.5 12.3333Z" stroke="#2E597C" stroke-opacity="0.5"/>
<path d="M25 5H25.25C26.3546 5 27.25 5.89543 27.25 7V9.75C27.25 10.8546 26.3546 11.75 25.25 11.75H25V5Z" fill="black" fill-opacity="0.15"/>
<path d="M26 5H27C28.1046 5 29 5.89543 29 7V9C29 10.1046 28.1046 11 27 11H26V5Z" fill="black" fill-opacity="0.15"/>
<path d="M26 4.5H25.5V5V11V11.5H26H27C28.3807 11.5 29.5 10.3807 29.5 9V7C29.5 5.61929 28.3807 4.5 27 4.5H26Z" stroke="black" stroke-opacity="0.07"/>
<path d="M25.6667 4.66663H27C28.1046 4.66663 29 5.56206 29 6.66663V9.33329C29 10.4379 28.1046 11.3333 27 11.3333H25.6667V4.66663Z" fill="#403757"/>
<path d="M26.1667 5.16663H27C27.8284 5.16663 28.5 5.8382 28.5 6.66663V9.33329C28.5 10.1617 27.8284 10.8333 27 10.8333H26.1667V5.16663Z" stroke="#231E2F" stroke-opacity="0.5"/>
<mask id="path-23-outside-1" maskUnits="userSpaceOnUse" x="6" y="0" width="21" height="5" fill="black">
<rect fill="white" x="6" width="21" height="5"/>
<path d="M26 4C25.8211 3.10655 25.318 1.8521 25.2192 1H7L7.62863 3.7041"/>
</mask>
<path d="M26 4C25.8211 3.10655 25.318 1.8521 25.2192 1H7L7.62863 3.7041" fill="url(#paint3_linear)"/>
<path d="M25.2192 1L26.2125 0.884816C26.154 0.380472 25.7269 0 25.2192 0V1ZM7 1V0C6.69497 0 6.40662 0.139219 6.21692 0.378082C6.02721 0.616945 5.9569 0.92933 6.02597 1.22644L7 1ZM26.9805 3.80367C26.879 3.29671 26.6882 2.6968 26.5369 2.19558C26.372 1.64927 26.25 1.20764 26.2125 0.884816L24.2258 1.11518C24.2872 1.64446 24.4661 2.2561 24.6222 2.77341C24.7919 3.3358 24.9421 3.80984 25.0195 4.19633L26.9805 3.80367ZM25.2192 0H7V2H25.2192V0ZM6.02597 1.22644L6.65461 3.93053L8.60266 3.47766L7.97403 0.773564L6.02597 1.22644Z" fill="url(#paint4_linear)" mask="url(#path-23-outside-1)"/>
<mask id="path-25-inside-2" fill="white">
<path d="M8 4H5.6C5.25749 4 5 3.95767 5 3.90244V0.940426C5 0.236474 5.14862 0 5.58773 0H8"/>
</mask>
<path d="M8 4H5.6C5.25749 4 5 3.95767 5 3.90244V0.940426C5 0.236474 5.14862 0 5.58773 0H8" fill="url(#paint5_linear)"/>
<path d="M8 5C8.55228 5 9 4.55228 9 4C9 3.44772 8.55228 3 8 3V5ZM8 1C8.55228 1 9 0.552285 9 0C9 -0.552285 8.55228 -1 8 -1V1ZM8 3H5.6V5H8V3ZM5.6 3C5.46212 3 5.36949 2.991 5.33257 2.98498C5.30578 2.98061 5.34557 2.98409 5.4153 3.01184C5.44559 3.02389 5.54456 3.06455 5.65299 3.15516C5.75465 3.24012 6 3.48766 6 3.90244H4C4 4.33102 4.2534 4.59197 4.37048 4.68982C4.49433 4.79331 4.61609 4.84634 4.67587 4.87013C4.80458 4.92134 4.93015 4.94577 5.01054 4.95888C5.188 4.98783 5.39537 5 5.6 5V3ZM6 3.90244V0.940426H4V3.90244H6ZM6 0.940426C6 0.7938 6.00819 0.709267 6.01567 0.665651C6.02355 0.619734 6.02365 0.661983 5.97694 0.736637C5.95168 0.777019 5.91514 0.822906 5.86517 0.866385C5.81496 0.910063 5.76186 0.94202 5.71205 0.963852C5.61807 1.00504 5.55967 1 5.58773 1V-1C5.17667 -1 4.62493 -0.873155 4.28145 -0.324176C4.02483 0.0859901 4 0.581546 4 0.940426H6ZM5.58773 1H8V-1H5.58773V1Z" fill="url(#paint6_linear)" mask="url(#path-25-inside-2)"/>
<path opacity="0.9" d="M5.5 3.51385C5.5 3.50765 5.5011 3.50313 5.50234 3.5H26.4977C26.4989 3.50313 26.5 3.50765 26.5 3.51385V30.4862C26.5 30.4923 26.4989 30.4969 26.4977 30.5H5.50234C5.5011 30.4969 5.5 30.4923 5.5 30.4862V3.51385Z" fill="url(#paint7_radial)" stroke="#0E141F"/>
<path d="M8 3C8 3 8 22.4696 8 31H5.52411C5.1816 31 5 30.7751 5 30.3886V3H8Z" fill="url(#paint8_linear)"/>
<path d="M7.5 3.5V3.50832V3.52871V3.54948V3.57063V3.59215V3.61405V3.63631V3.65895V3.68196V3.70534V3.72908V3.75319V3.77766V3.80249V3.82769V3.85325V3.87916V3.90543V3.93206V3.95905V3.98638V4.01407V4.04211V4.07049V4.09923V4.12831V4.15774V4.18751V4.21762V4.24807V4.27887V4.31V4.34147V4.37327V4.40541V4.43788V4.47068V4.50381V4.53727V4.57106V4.60518V4.63961V4.67438V4.70946V4.74487V4.78059V4.81663V4.85299V4.88966V4.92665V4.96395V5.00156V5.03948V5.07771V5.11624V5.15508V5.19423V5.23368V5.27343V5.31348V5.35383V5.39447V5.43541V5.47665V5.51818V5.56V5.60212V5.64452V5.68721V5.73019V5.77345V5.81699V5.86082V5.90493V5.94932V5.99399V6.03893V6.08416V6.12965V6.17542V6.22146V6.26777V6.31435V6.36119V6.4083V6.45568V6.50332V6.55122V6.59939V6.64781V6.69649V6.74543V6.79462V6.84407V6.89377V6.94372V6.99392V7.04437V7.09507V7.14601V7.19719V7.24862V7.30029V7.35221V7.40436V7.45675V7.50937V7.56223V7.61532V7.66865V7.7222V7.77599V7.83V7.88424V7.93871V7.9934V8.04831V8.10345V8.1588V8.21437V8.27016V8.32617V8.38239V8.43882V8.49547V8.55232V8.60939V8.66666V8.72414V8.78182V8.83971V8.8978V8.95609V9.01458V9.07327V9.13215V9.19123V9.25051V9.30998V9.36964V9.42948V9.48952V9.54975V9.61016V9.67075V9.73153V9.79249V9.85364V9.91496V9.97646V10.0381V10.1V10.162V10.2242V10.2866V10.3491V10.4118V10.4747V10.5377V10.6009V10.6643V10.7278V10.7915V10.8553V10.9193V10.9835V11.0478V11.1123V11.1769V11.2417V11.3066V11.3717V11.4369V11.5022V11.5677V11.6334V11.6992V11.7651V11.8312V11.8974V11.9637V12.0302V12.0968V12.1635V12.2304V12.2974V12.3645V12.4317V12.4991V12.5666V12.6342V12.702V12.7698V12.8378V12.9059V12.9741V13.0424V13.1109V13.1794V13.2481V13.3168V13.3857V13.4547V13.5238V13.593V13.6622V13.7316V13.8011V13.8707V13.9404V14.0102V14.08V14.15V14.22V14.2902V14.3604V14.4307V14.5011V14.5716V14.6422V14.7128V14.7836V14.8544V14.9253V14.9962V15.0672V15.1384V15.2095V15.2808V15.3521V15.4235V15.495V15.5665V15.6381V15.7097V15.7814V15.8532V15.925V15.9969V16.0688V16.1408V16.2128V16.2849V16.3571V16.4293V16.5015V16.5738V16.6461V16.7185V16.7909V16.8634V16.9359V17.0084V17.081V17.1536V17.2262V17.2989V17.3716V17.4443V17.5171V17.5899V17.6627V17.7355V17.8084V17.8813V17.9542V18.0271V18.1V18.173V18.246V18.3189V18.3919V18.4649V18.5379V18.611V18.684V18.757V18.8301V18.9031V18.9762V19.0492V19.1222V19.1953V19.2683V19.3413V19.4143V19.4874V19.5604V19.6333V19.7063V19.7793V19.8522V19.9252V19.9981V20.071V20.1438V20.2167V20.2895V20.3623V20.4351V20.5079V20.5806V20.6533V20.7259V20.7986V20.8711V20.9437V21.0162V21.0887V21.1611V21.2335V21.3059V21.3782V21.4505V21.5227V21.5949V21.667V21.7391V21.8111V21.8831V21.955V22.0269V22.0987V22.1704V22.2421V22.3137V22.3853V22.4568V22.5282V22.5996V22.6709V22.7421V22.8132V22.8843V22.9553V23.0263V23.0971V23.1679V23.2386V23.3092V23.3797V23.4502V23.5206V23.5909V23.6611V23.7312V23.8012V23.8711V23.9409V24.0107V24.0803V24.1499V24.2193V24.2887V24.3579V24.4271V24.4961V24.5651V24.6339V24.7026V24.7712V24.8397V24.9081V24.9764V25.0446V25.1126V25.1806V25.2484V25.3161V25.3836V25.4511V25.5184V25.5856V25.6527V25.7196V25.7865V25.8531V25.9197V25.9861V26.0524V26.1186V26.1846V26.2504V26.3162V26.3818V26.4472V26.5125V26.5777V26.6427V26.7076V26.7723V26.8368V26.9012V26.9655V27.0296V27.0935V27.1573V27.221V27.2844V27.3477V27.4109V27.4738V27.5367V27.5993V27.6618V27.7241V27.7862V27.8482V27.91V27.9716V28.033V28.0942V28.1553V28.2162V28.2769V28.3375V28.3978V28.458V28.5179V28.5777V28.6373V28.6967V28.7559V28.8149V28.8737V28.9323V28.9907V29.049V29.107V29.1648V29.2224V29.2798V29.337V29.394V29.4507V29.5073V29.5637V29.6198V29.6757V29.7314V29.7869V29.8422V29.8973V29.9521V30.0067V30.0611V30.1152V30.1692V30.2229V30.2763V30.3296V30.3826V30.4353V30.4879V30.5H5.52411C5.51945 30.5 5.51529 30.4999 5.51161 30.4997C5.50593 30.4783 5.5 30.4424 5.5 30.3886V3.5H7.5Z" stroke="#3D211B" stroke-opacity="0.8"/>
<path opacity="0.5" d="M6.5 4.5H25.5V29.5H6.5V4.5Z" stroke="url(#paint9_linear)" stroke-linecap="round" stroke-linejoin="round"/>
<g opacity="0.7">
<path d="M12.4826 25.75H13.8094M9 7.25H10.302H9ZM10.488 7.25H11.6969H10.488ZM11.8915 7.25H12.9703H11.8915ZM13.1477 7.25H13.6127H13.1477ZM13.7987 7.25H14.8403H13.7987ZM15.0449 7.25H17.779H15.0449ZM17.965 7.25H20.0481H17.965ZM20.2341 7.25H20.8665H20.2341ZM9 8.5H11.0188H9ZM11.2536 8.5H12.2182H11.2536ZM12.3966 8.5H12.8726H12.3966ZM13.0662 8.5H13.9548H13.0662ZM14.1408 8.5H15.052H14.1408ZM15.2241 8.5H16.6549H15.2241ZM16.8409 8.5H18.7286H16.8409ZM9 9.74334H10.7087H9ZM10.8882 9.74334H13.7022H10.8882ZM13.8747 9.74334H15.2394H13.8747ZM15.4144 9.74334H16.6911H15.4144ZM16.8741 9.74334H17.9617H16.8741ZM18.1366 9.74334L19.8471 9.75666L18.1366 9.74334ZM9 11H11.3757H9ZM11.5623 11H14.13H11.5623ZM14.3073 11H15.3164H14.3073ZM15.5024 11H17.904H15.5024ZM18.0656 11H19.7117H18.0656ZM19.8977 11H20.5492H19.8977ZM20.7352 11H21.0956H20.7352ZM9 12.25H9.88679H9ZM10.1592 12.25H13.4428H10.1592ZM9 19H11.0188H9ZM11.2536 19H12.2182H11.2536ZM12.3966 19H12.8726H12.3966ZM13.0662 19H13.9548H13.0662ZM14.1408 19H15.052H14.1408ZM15.2241 19H16.6549H15.2241ZM9 21.7295H10.7087H9ZM10.8882 21.7295H13.7022H10.8882ZM13.8747 21.7295H15.2394H13.8747ZM20.0622 21.7705H22.8496H20.0622ZM9 17.75H11.3757H9ZM11.5623 17.75H14.13H11.5623ZM14.3073 17.75H15.3164H14.3073ZM15.5024 17.75H17.904H15.5024ZM9 15H10.302H9ZM10.488 15H11.6969H10.488ZM11.8915 15H12.9703H11.8915ZM13.1477 15H13.6127H13.1477ZM13.7987 15H14.8403H13.7987ZM15.0449 15H17.779H15.0449ZM17.965 15H20.0481H17.965ZM9 16.5H11.1927H9ZM11.3652 16.5H13.6935H11.3652ZM13.8709 16.5H14.7814H13.8709ZM14.9533 16.5H17.1437H14.9533ZM17.3195 16.5H19.7117H17.3195ZM9 23H11.049H9ZM11.269 23H12.1723H11.269ZM12.3839 23H12.8345H12.3839ZM12.9779 23H13.8674H12.9779ZM13.9855 23H18.6944H13.9855ZM18.916 23H20.173H18.916ZM20.342 23H20.6594H20.342ZM11.3343 24.5H12.0027H11.3343ZM9 24.5H11.1387H9ZM12.1737 24.5H13.7288H12.1737ZM13.8933 24.5H16.1762H13.8933ZM16.3536 24.5H17.9022H16.3536ZM18.0581 24.5H18.3773H18.0581ZM18.5518 24.5H20.5183H18.5518ZM20.7193 24.5H21.7489H20.7193ZM11.3343 25.75H12.2781H11.3343ZM9 25.75H11.1387H9Z" stroke="#657B83"/>
<path d="M13.8933 24.5001H16.1762M9 9.74341H10.7087H9ZM20.7352 11.0001H21.0956H20.7352ZM9 19.0001H11.0188H9ZM9 15.0001H10.302H9ZM13.8709 16.5001H14.7814H13.8709Z" stroke="#D33682"/>
<path d="M17.965 15H20.0482M13.7987 7.25H14.8403H13.7987ZM16.841 8.5H18.7286H16.841ZM15.2241 19H16.655H15.2241Z" stroke="#268BD2"/>
<path d="M11.3343 25.75H12.2781M9 7.25H10.302H9ZM15.5024 11H17.904H15.5024ZM13.0663 19H13.9548H13.0663ZM15.5024 17.75H17.904H15.5024ZM10.488 15H11.6969H10.488Z" stroke="#859900"/>
</g>
<path d="M13.9375 11.5C13.1245 11.5 12.6935 11.6472 12.2852 11.9512C11.8805 12.251 11.6875 12.7283 11.6875 13.3691V15.2812C11.6875 15.6633 11.5481 15.9302 11.3008 16.1191C11.0573 16.304 10.5058 16.4199 10 16.4199V17.5801C10.9966 17.5801 11.6875 17.9762 11.6875 18.7402V20.4805C11.6875 21.1829 11.8716 21.7152 12.25 22.0273C12.6322 22.3436 13.072 22.4918 13.9375 22.5V21.3828C13.5066 21.3746 13.2848 21.276 13.0938 21.1035C12.9027 20.931 12.8125 20.6884 12.8125 20.3516V18.5039C12.8125 17.6783 12.4752 17.1908 11.6172 17.043V16.957C12.4752 16.7968 12.8125 16.292 12.8125 15.4746V13.6484C12.8125 13.3116 12.9027 13.0864 13.0938 12.918C13.2886 12.7455 13.5104 12.6377 13.9375 12.6172V11.5ZM19.5625 11.5V12.6172C19.9896 12.6377 20.2114 12.7455 20.4062 12.918C20.5973 13.0864 20.6875 13.3116 20.6875 13.6484V15.4746C20.6875 16.292 21.0248 16.7968 21.8828 16.957V17.043C21.0248 17.1908 20.6875 17.6783 20.6875 18.5039V20.3516C20.6875 20.6884 20.5973 20.931 20.4062 21.1035C20.2152 21.276 19.9934 21.3746 19.5625 21.3828V22.5C20.428 22.4918 20.8678 22.3436 21.25 22.0273C21.6284 21.7152 21.8125 21.1829 21.8125 20.4805V18.7402C21.8125 17.9762 22.5034 17.5801 23.5 17.5801V16.4199C22.9942 16.4199 22.4427 16.304 22.1992 16.1191C21.9519 15.9302 21.8125 15.6633 21.8125 15.2812V13.3691C21.8125 12.7283 21.6195 12.251 21.2148 11.9512C20.8065 11.6472 20.3755 11.5 19.5625 11.5Z" fill="black" fill-opacity="0.6"/>
<path d="M13.9375 11C13.1245 11 12.6935 11.1472 12.2852 11.4512C11.8805 11.751 11.6875 12.2283 11.6875 12.8691V14.7812C11.6875 15.1633 11.5481 15.4302 11.3008 15.6191C11.0573 15.804 10.5058 15.9199 10 15.9199V17.0801C10.9966 17.0801 11.6875 17.4762 11.6875 18.2402V19.9805C11.6875 20.6829 11.8716 21.2152 12.25 21.5273C12.6322 21.8436 13.072 21.9918 13.9375 22V20.8828C13.5066 20.8746 13.2848 20.776 13.0938 20.6035C12.9027 20.431 12.8125 20.1884 12.8125 19.8516V18.0039C12.8125 17.1783 12.4752 16.6908 11.6172 16.543V16.457C12.4752 16.2968 12.8125 15.792 12.8125 14.9746V13.1484C12.8125 12.8116 12.9027 12.5864 13.0938 12.418C13.2886 12.2455 13.5104 12.1377 13.9375 12.1172V11ZM19.5625 11V12.1172C19.9896 12.1377 20.2114 12.2455 20.4062 12.418C20.5973 12.5864 20.6875 12.8116 20.6875 13.1484V14.9746C20.6875 15.792 21.0248 16.2968 21.8828 16.457V16.543C21.0248 16.6908 20.6875 17.1783 20.6875 18.0039V19.8516C20.6875 20.1884 20.5973 20.431 20.4062 20.6035C20.2152 20.776 19.9934 20.8746 19.5625 20.8828V22C20.428 21.9918 20.8678 21.8436 21.25 21.5273C21.6284 21.2152 21.8125 20.6829 21.8125 19.9805V18.2402C21.8125 17.4762 22.5034 17.0801 23.5 17.0801V15.9199C22.9942 15.9199 22.4427 15.804 22.1992 15.6191C21.9519 15.4302 21.8125 15.1633 21.8125 14.7812V12.8691C21.8125 12.2283 21.6195 11.751 21.2148 11.4512C20.8065 11.1472 20.3755 11 19.5625 11Z" fill="url(#paint10_linear)"/>
<defs>
<radialGradient id="paint0_radial" cx="0" cy="0" r="1" gradientUnits="userSpaceOnUse" gradientTransform="translate(25.5083 29.875) scale(3.49344 1.625)">
<stop stop-color="#181818"/>
<stop offset="1" stop-color="#181818" stop-opacity="0"/>
</radialGradient>
<radialGradient id="paint1_radial" cx="0" cy="0" r="1" gradientUnits="userSpaceOnUse" gradientTransform="translate(5.99171 29.875) rotate(180) scale(3.49344 1.625)">
<stop stop-color="#181818"/>
<stop offset="1" stop-color="#181818" stop-opacity="0"/>
</radialGradient>
<linearGradient id="paint2_linear" x1="16.4879" y1="31.5129" x2="16.4879" y2="28.2497" gradientUnits="userSpaceOnUse">
<stop stop-color="#181818" stop-opacity="0"/>
<stop offset="0.5" stop-color="#181818"/>
<stop offset="1" stop-color="#181818" stop-opacity="0"/>
</linearGradient>
<linearGradient id="paint3_linear" x1="16.9834" y1="1.23799" x2="17.0234" y2="3.67636" gradientUnits="userSpaceOnUse">
<stop stop-color="#F5F5F5"/>
<stop offset="1" stop-color="#E1E1E1"/>
</linearGradient>
<linearGradient id="paint4_linear" x1="4.83337" y1="0.546739" x2="26.3813" y2="0.546739" gradientUnits="userSpaceOnUse">
<stop stop-color="#0E9A83"/>
<stop offset="0.95971" stop-color="#0E9A83"/>
<stop offset="0.963265" stop-color="#C2C2C2"/>
<stop offset="1" stop-color="#C2C2C2"/>
</linearGradient>
<linearGradient id="paint5_linear" x1="7.49243" y1="0.499979" x2="7.49243" y2="2.49999" gradientUnits="userSpaceOnUse">
<stop stop-color="#F5F5F5"/>
<stop offset="1" stop-color="#E1E1E1"/>
</linearGradient>
<linearGradient id="paint6_linear" x1="16.7" y1="4.05128" x2="16.7" y2="-0.0616413" gradientUnits="userSpaceOnUse">
<stop stop-color="#272727"/>
<stop offset="1" stop-color="#454545"/>
</linearGradient>
<radialGradient id="paint7_radial" cx="0" cy="0" r="1" gradientUnits="userSpaceOnUse" gradientTransform="translate(16.5192 -6.75715) rotate(90) scale(76.0672 92.3103)">
<stop stop-color="#206A7C"/>
<stop offset="0.26238" stop-color="#073642"/>
<stop offset="0.704952" stop-color="#002B36"/>
<stop offset="1" stop-color="#00161C"/>
</radialGradient>
<linearGradient id="paint8_linear" x1="6.5" y1="3" x2="6.5" y2="31" gradientUnits="userSpaceOnUse">
<stop stop-color="#8A715E"/>
<stop offset="1" stop-color="#57392D"/>
</linearGradient>
<linearGradient id="paint9_linear" x1="16" y1="3.64865" x2="16" y2="30.3514" gradientUnits="userSpaceOnUse">
<stop stop-color="white"/>
<stop offset="0.0270648" stop-color="white" stop-opacity="0.235294"/>
<stop offset="0.97377" stop-color="white" stop-opacity="0.156863"/>
<stop offset="1" stop-color="white" stop-opacity="0.392157"/>
</linearGradient>
<linearGradient id="paint10_linear" x1="14.6406" y1="11" x2="11.1689" y2="28.7101" gradientUnits="userSpaceOnUse">
<stop stop-color="#FAFAFA"/>
<stop offset="1" stop-color="#D4D4D4"/>
</linearGradient>
</defs>
</svg>
