<?xml version="1.0" encoding="UTF-8" standalone="no"?>
<svg
   inkscape:version="1.1 (c68e22c387, 2021-05-23)"
   sodipodi:docname="com.github.elementaryrevivals.docs.svg"
   viewBox="0 0 128 128"
   version="1.1"
   id="svg126"
   xmlns:inkscape="http://www.inkscape.org/namespaces/inkscape"
   xmlns:sodipodi="http://sodipodi.sourceforge.net/DTD/sodipodi-0.dtd"
   xmlns="http://www.w3.org/2000/svg"
   xmlns:svg="http://www.w3.org/2000/svg">
  <sodipodi:namedview
     pagecolor="#ffffff"
     bordercolor="#666666"
     borderopacity="1"
     objecttolerance="10"
     gridtolerance="10"
     guidetolerance="10"
     inkscape:pageopacity="0"
     inkscape:pageshadow="2"
     inkscape:window-width="1920"
     inkscape:window-height="964"
     showgrid="true"
     inkscape:zoom="4"
     inkscape:cx="47"
     inkscape:cy="74.25"
     inkscape:window-x="1920"
     inkscape:window-y="30"
     inkscape:window-maximized="1"
     inkscape:current-layer="g114"
     showborder="true"
     inkscape:pagecheckerboard="0"
     showguides="true"
     inkscape:guide-bbox="true"
     id="namedview6">
    <inkscape:grid
       type="xygrid"
       empspacing="4"
       enabled="false"
       id="grid2" />
    <inkscape:grid
       type="xygrid"
       spacingx=".5"
       spacingy=".5"
       empspacing="2"
       color="#ff3fff"
       opacity=".125"
       empcolor="#3fffff"
       empopacity=".137"
       enabled="true"
       id="grid4" />
  </sodipodi:namedview>
  <defs
     id="defs108">
    <linearGradient
       id="a">
      <stop
         offset="0"
         stop-color="#5f5f5f"
         id="stop8" />
      <stop
         offset=".262"
         stop-color="#4f4f4f"
         id="stop10" />
      <stop
         offset=".705"
         stop-color="#3b3b3b"
         id="stop12" />
      <stop
         offset="1"
         stop-color="#2b2b2b"
         id="stop14" />
    </linearGradient>
    <linearGradient
       id="b">
      <stop
         offset="0"
         stop-color="#272727"
         id="stop17" />
      <stop
         offset="1"
         stop-color="#454545"
         id="stop19" />
    </linearGradient>
    <linearGradient
       id="c">
      <stop
         offset="0"
         stop-color="#fff"
         id="stop22" />
      <stop
         offset=".087"
         stop-color="#fff"
         stop-opacity=".235"
         id="stop24" />
      <stop
         offset=".919"
         stop-color="#fff"
         stop-opacity=".157"
         id="stop26" />
      <stop
         offset="1"
         stop-color="#fff"
         stop-opacity=".392"
         id="stop28" />
    </linearGradient>
    <linearGradient
       id="d">
      <stop
         offset="0"
         stop-color="#5f5f5f"
         id="stop31" />
      <stop
         offset=".262"
         stop-color="#4f4f4f"
         id="stop33" />
      <stop
         offset=".705"
         stop-color="#3b3b3b"
         id="stop35" />
      <stop
         offset="1"
         stop-color="#2b2b2b"
         id="stop37" />
    </linearGradient>
    <linearGradient
       id="e">
      <stop
         offset="0"
         stop-color="#272727"
         id="stop40" />
      <stop
         offset="1"
         stop-color="#454545"
         id="stop42" />
    </linearGradient>
    <linearGradient
       id="f">
      <stop
         offset="0"
         stop-color="#ddcfbd"
         id="stop45" />
      <stop
         offset="1"
         stop-color="#856f50"
         id="stop47" />
    </linearGradient>
    <linearGradient
       id="g">
      <stop
         offset="0"
         stop-color="#a79071"
         id="stop50" />
      <stop
         offset="1"
         stop-color="#6f5d45"
         id="stop52" />
    </linearGradient>
    <linearGradient
       id="h">
      <stop
         offset="0"
         stop-color="#272727"
         id="stop55" />
      <stop
         offset="1"
         stop-color="#454545"
         id="stop57" />
    </linearGradient>
    <linearGradient
       id="i">
      <stop
         offset="0"
         stop-color="#9b876c"
         id="stop60" />
      <stop
         offset=".925"
         stop-color="#9b876c"
         id="stop62" />
      <stop
         offset=".936"
         stop-color="#c2c2c2"
         id="stop64" />
      <stop
         offset="1"
         stop-color="#c2c2c2"
         id="stop66" />
    </linearGradient>
    <linearGradient
       id="l">
      <stop
         offset="0"
         stop-color="#95a3ab"
         id="stop69" />
      <stop
         offset=".262"
         stop-color="#667885"
         id="stop71" />
      <stop
         offset=".705"
         stop-color="#485a6c"
         id="stop73" />
      <stop
         offset="1"
         stop-color="#273445"
         id="stop75" />
    </linearGradient>
    <linearGradient
       id="k">
      <stop
         offset="0"
         stop-color="#fff"
         id="stop78" />
      <stop
         offset=".063"
         stop-color="#fff"
         stop-opacity=".235"
         id="stop80" />
      <stop
         offset=".951"
         stop-color="#fff"
         stop-opacity=".157"
         id="stop82" />
      <stop
         offset="1"
         stop-color="#fff"
         stop-opacity=".392"
         id="stop84" />
    </linearGradient>
    <linearGradient
       id="m">
      <stop
         offset="0"
         stop-color="#181818"
         id="stop87" />
      <stop
         offset="1"
         stop-color="#181818"
         stop-opacity="0"
         id="stop89" />
    </linearGradient>
    <linearGradient
       id="n">
      <stop
         offset="0"
         stop-color="#181818"
         stop-opacity="0"
         id="stop92" />
      <stop
         offset=".5"
         stop-color="#181818"
         id="stop94" />
      <stop
         offset="1"
         stop-color="#181818"
         stop-opacity="0"
         id="stop96" />
    </linearGradient>
    <linearGradient
       id="j">
      <stop
         offset="0"
         stop-color="#206a7c"
         id="stop99" />
      <stop
         offset=".262"
         stop-color="#073642"
         id="stop101" />
      <stop
         offset=".705"
         stop-color="#002b36"
         id="stop103" />
      <stop
         offset="1"
         stop-color="#00161c"
         id="stop105" />
    </linearGradient>
  </defs>
  <g
     transform="matrix(0.96961,0,0,0.96961,3.394,3.394)"
     id="g124">
    <rect
       width="117.57278"
       height="117.57278"
       x="3.7737596"
       y="3.7217798"
       ry="15.391716"
       inkscape:label="back"
       fill="#282a36"
       stroke="#44475a"
       stroke-width="6.293"
       stroke-linecap="round"
       stroke-linejoin="round"
       id="rect110"
       sodipodi:insensitive="true"
       style="stroke-width:6.18832;stroke-miterlimit:4;stroke-dasharray:none" />
    <g
       aria-label="011010 00011 01001"
       style="line-height:1.25;-inkscape-font-specification:'Fira Code'"
       font-size="2.472px"
       font-family="'Fira Code'"
       fill="#f8f8f2"
       stroke-width="0.824"
       id="g114"
       transform="translate(0,4.12537)">
      <path
         style="stroke-width:0.824163"
         d="m 85.174474,78.883871 v 15.638178 h 3.63 v 1.727683 h -10.021 v -1.727683 h 4.273 v -13.34327 l -3.984,2.420956 -0.92,-1.512599 5.169,-3.203265 z"
         id="path2332" />
      <path
         id="path2330"
         style="stroke-width:0.799117"
         d="m 69.515625,79.611328 c -1.800243,0 -3.170132,0.746432 -4.107422,2.238281 -0.93729,1.49185 -1.40625,3.639433 -1.40625,6.44336 0,2.812334 0.46896,4.968494 1.40625,6.46875 C 66.344846,96.253568 67.714736,97 69.515625,97 c 1.800889,0 3.170132,-0.746432 4.107422,-2.238281 0.93729,-1.49961 1.404297,-3.65577 1.404297,-6.46875 0,-2.803927 -0.467007,-4.95151 -1.404297,-6.44336 -0.93729,-1.491849 -2.306533,-2.238281 -4.107422,-2.238281 z m 0,1.650391 c 0.986417,0 1.731485,0.362335 2.236328,1.08789 l -5.146484,10.345703 c -0.285066,-1.059232 -0.427735,-2.527023 -0.427735,-4.402343 0,-4.687654 1.113606,-7.03125 3.337891,-7.03125 z m 2.910156,2.605469 c 0.292822,1.043066 0.4375,2.518127 0.4375,4.425781 0,4.695414 -1.114967,7.042969 -3.347656,7.042969 h -0.002 c -0.48028,0 -0.904326,-0.08645 -1.271484,-0.257813 C 67.884077,94.899 67.57164,94.626423 67.302734,94.259766 Z"
         transform="matrix(1.0313425,0,0,1.0313425,-3.5003764,-3.5003764)" />
      <path
         id="path2324"
         style="stroke-width:0.799117"
         d="m 54.847656,79.611328 c -1.800889,0 -3.170132,0.746432 -4.107422,2.238281 -0.937289,1.49185 -1.40625,3.639433 -1.40625,6.44336 0,2.812334 0.468961,4.968494 1.40625,6.46875 C 51.677524,96.253568 53.046767,97 54.847656,97 c 1.800889,0 3.170132,-0.746432 4.107422,-2.238281 0.93729,-1.49961 1.40625,-3.65577 1.40625,-6.46875 0,-2.803927 -0.46896,-4.95151 -1.40625,-6.44336 -0.93729,-1.491849 -2.306533,-2.238281 -4.107422,-2.238281 z m 0,1.650391 c 0.98577,0 1.730838,0.362335 2.236328,1.08789 L 51.9375,92.695312 c -0.284419,-1.059232 -0.425781,-2.527023 -0.425781,-4.402343 0,-4.687654 1.111652,-7.03125 3.335937,-7.03125 z m 2.908203,2.605469 c 0.293469,1.043066 0.441407,2.518127 0.441407,4.425781 0,4.695414 -1.116921,7.042969 -3.34961,7.042969 -0.480926,0 -0.904972,-0.08645 -1.271484,-0.257813 C 53.217416,94.899 52.903671,94.626423 52.634766,94.259766 Z"
         transform="matrix(1.0313425,0,0,1.0313425,-3.5003764,-3.5003764)" />
      <path
         style="stroke-width:0.824163"
         d="m 39.791474,78.883871 v 15.638178 h 3.631 v 1.727683 h -10.021 v -1.727683 h 4.274 v -13.34327 l -3.984,2.420956 -0.92,-1.512599 5.169,-3.203265 z"
         id="path2318" />
      <path
         id="path2316"
         style="stroke-width:0.799117"
         d="m 25.511719,79.611328 c -1.800243,0 -3.168179,0.746432 -4.105469,2.238281 C 20.46896,83.341459 20,85.489042 20,88.292969 c 0,2.812334 0.46896,4.968494 1.40625,6.46875 C 22.342893,96.253568 23.71083,97 25.511719,97 c 1.800889,0 3.170132,-0.746432 4.107422,-2.238281 0.937289,-1.49961 1.40625,-3.65577 1.40625,-6.46875 0,-2.803927 -0.468961,-4.95151 -1.40625,-6.44336 -0.93729,-1.491849 -2.306533,-2.238281 -4.107422,-2.238281 z m 0,1.650391 c 0.986416,0 1.733437,0.362335 2.238281,1.08789 l -5.148438,10.345703 c -0.284418,-1.059232 -0.425781,-2.527023 -0.425781,-4.402343 0,-4.687654 1.111652,-7.03125 3.335938,-7.03125 z m 2.910156,2.605469 c 0.293469,1.043066 0.439453,2.518127 0.439453,4.425781 0,4.695414 -1.116921,7.042969 -3.349609,7.042969 -0.480927,0 -0.904972,-0.08645 -1.271485,-0.257813 C 23.882125,94.899 23.56838,94.626423 23.298828,94.259766 Z"
         transform="matrix(1.0313425,0,0,1.0313425,-3.5003764,-3.5003764)" />
      <path
         style="stroke-width:0.824163"
         d="m 85.174474,48.143728 v 15.638178 h 3.63 v 1.727682 h -10.021 v -1.727682 h 4.273 V 50.439634 l -3.984,2.420956 -0.92,-1.513597 5.169,-3.203265 z"
         id="path2310" />
      <path
         style="stroke-width:0.824163"
         d="m 70.047474,48.143728 v 15.638178 h 3.63 v 1.727682 h -10.022 v -1.727682 h 4.274 V 50.439634 l -3.984,2.420956 -0.92,-1.513597 5.168,-3.203265 z"
         id="path2308" />
      <path
         id="path2306"
         style="stroke-width:0.799117"
         d="m 54.847656,49.806641 c -1.800889,0 -3.170132,0.744478 -4.107422,2.236328 -0.937289,1.491849 -1.40625,3.641385 -1.40625,6.445312 0,2.812334 0.468961,4.968495 1.40625,6.46875 0.93729,1.491851 2.306533,2.236328 4.107422,2.236328 1.800889,0 3.170132,-0.745124 4.107422,-2.236328 0.93729,-1.500255 1.40625,-3.655769 1.40625,-6.46875 0,-2.803927 -0.46896,-4.953463 -1.40625,-6.445312 -0.93729,-1.49185 -2.306533,-2.236328 -4.107422,-2.236328 z m 0,1.65039 c 0.98577,0 1.730838,0.362336 2.236328,1.087891 L 51.9375,62.890625 c -0.284419,-1.059879 -0.425781,-2.527024 -0.425781,-4.402344 0,-4.687007 1.111652,-7.03125 3.335937,-7.03125 z m 2.908203,2.603516 c 0.293469,1.043066 0.441407,2.520081 0.441407,4.427734 0,4.696061 -1.116921,7.042969 -3.34961,7.042969 -0.480926,0 -0.904972,-0.08449 -1.271484,-0.255859 -0.358756,-0.179125 -0.672501,-0.453008 -0.941406,-0.820313 z"
         transform="matrix(1.0313425,0,0,1.0313425,-3.5003764,-3.5003764)" />
      <path
         id="path2300"
         style="stroke-width:0.799117"
         d="m 40.179688,49.806641 c -1.800889,0 -3.170133,0.744478 -4.107422,2.236328 -0.93729,1.491849 -1.404297,3.641385 -1.404297,6.445312 0,2.812334 0.467007,4.968495 1.404297,6.46875 0.937289,1.491851 2.306533,2.236328 4.107422,2.236328 1.800242,0 3.170132,-0.745124 4.107421,-2.236328 0.93729,-1.500255 1.40625,-3.655769 1.40625,-6.46875 0,-2.803927 -0.46896,-4.953463 -1.40625,-6.445312 -0.936643,-1.49185 -2.306533,-2.236328 -4.107421,-2.236328 z m 0,1.65039 c 0.98577,0 1.732791,0.362336 2.238281,1.087891 l -5.146485,10.345703 c -0.285065,-1.059879 -0.427734,-2.527024 -0.427734,-4.402344 0,-4.687007 1.111005,-7.03125 3.335938,-7.03125 z m 2.910156,2.603516 c 0.293468,1.043066 0.439453,2.520081 0.439453,4.427734 0,4.696061 -1.116921,7.042969 -3.349609,7.042969 -0.480928,0 -0.904326,-0.08449 -1.271485,-0.255859 -0.358109,-0.179125 -0.670548,-0.453008 -0.939453,-0.820313 z"
         transform="matrix(1.0313425,0,0,1.0313425,-3.5003764,-3.5003764)" />
      <path
         id="path2294"
         style="stroke-width:0.799117"
         d="m 25.511719,49.806641 c -1.800243,0 -3.168179,0.744478 -4.105469,2.236328 C 20.46896,53.534818 20,55.684354 20,58.488281 c 0,2.812334 0.46896,4.968495 1.40625,6.46875 0.936643,1.491851 2.30458,2.236328 4.105469,2.236328 1.800889,0 3.170132,-0.745124 4.107422,-2.236328 0.937289,-1.500255 1.40625,-3.655769 1.40625,-6.46875 0,-2.803927 -0.468961,-4.953463 -1.40625,-6.445312 -0.93729,-1.49185 -2.306533,-2.236328 -4.107422,-2.236328 z m 0,1.65039 c 0.986416,0 1.733437,0.362336 2.238281,1.087891 l -5.148438,10.345703 c -0.284418,-1.059879 -0.425781,-2.527024 -0.425781,-4.402344 0,-4.687007 1.111652,-7.03125 3.335938,-7.03125 z m 2.910156,2.603516 c 0.293469,1.043066 0.439453,2.520081 0.439453,4.427734 0,4.696061 -1.116921,7.042969 -3.349609,7.042969 -0.480927,0 -0.904972,-0.08449 -1.271485,-0.255859 -0.358109,-0.179125 -0.671854,-0.453008 -0.941406,-0.820313 z"
         transform="matrix(1.0313425,0,0,1.0313425,-3.5003764,-3.5003764)" />
      <path
         id="path2288"
         style="stroke-width:0.799117"
         d="m 98.851562,20 c -1.800242,0 -3.170132,0.746432 -4.107421,2.238281 -0.93729,1.491849 -1.40625,3.639432 -1.40625,6.44336 0,2.81298 0.46896,4.968493 1.40625,6.46875 0.936643,1.491203 2.306533,2.238281 4.107421,2.238281 1.800888,0 3.168178,-0.747078 4.105468,-2.238281 0.93729,-1.500257 1.40625,-3.656417 1.40625,-6.46875 0,-2.804575 -0.46896,-4.951511 -1.40625,-6.44336 C 102.01974,20.746432 100.65245,20 98.851562,20 Z m 0,1.650391 c 0.986418,0 1.731488,0.364288 2.236328,1.089843 l -5.146484,10.34375 c -0.285065,-1.059232 -0.427734,-2.527023 -0.427734,-4.402343 0,-4.687655 1.113605,-7.03125 3.33789,-7.03125 z m 2.908208,2.605468 c 0.29346,1.043713 0.43945,2.518128 0.43945,4.425782 0,4.695413 -1.11497,7.042968 -3.347658,7.042968 -0.480926,0 -0.904971,-0.08449 -1.271484,-0.255859 -0.358756,-0.179126 -0.672501,-0.451702 -0.941406,-0.818359 z"
         transform="matrix(1.0313425,0,0,1.0313425,-3.5003764,-3.5003764)" />
      <path
         style="stroke-width:0.824163"
         d="m 85.174474,17.403584 v 15.638178 h 3.63 v 1.728682 h -10.021 v -1.728682 h 4.273 V 19.69949 l -3.984,2.420957 -0.92,-1.512598 5.169,-3.204265 z"
         id="path2282" />
      <path
         id="path2280"
         style="stroke-width:0.799117"
         d="m 69.515625,20 c -1.800243,0 -3.170132,0.746432 -4.107422,2.238281 -0.93729,1.491849 -1.40625,3.639432 -1.40625,6.44336 0,2.81298 0.46896,4.968493 1.40625,6.46875 0.936643,1.491203 2.306533,2.238281 4.107422,2.238281 1.800889,0 3.170132,-0.747078 4.107422,-2.238281 0.93729,-1.500257 1.404297,-3.656417 1.404297,-6.46875 0,-2.804575 -0.467007,-4.951511 -1.404297,-6.44336 C 72.685757,20.746432 71.316514,20 69.515625,20 Z m 0,1.650391 c 0.986417,0 1.731485,0.364288 2.236328,1.089843 l -5.146484,10.34375 c -0.285066,-1.059232 -0.427735,-2.527023 -0.427735,-4.402343 0,-4.687655 1.113606,-7.03125 3.337891,-7.03125 z m 2.910156,2.605468 c 0.292822,1.043713 0.4375,2.518128 0.4375,4.425782 0,4.695413 -1.114967,7.042968 -3.347656,7.042968 h -0.002 c -0.48028,0 -0.904326,-0.08449 -1.271484,-0.255859 -0.358111,-0.179126 -0.670548,-0.451702 -0.939454,-0.818359 z"
         transform="matrix(1.0313425,0,0,1.0313425,-3.5003764,-3.5003764)" />
      <path
         style="stroke-width:0.824163"
         d="m 54.919474,17.403584 v 15.638178 h 3.63 v 1.728682 h -10.02 v -1.728682 h 4.273 V 19.69949 l -3.983,2.420957 -0.92,-1.512598 5.168,-3.203265 z"
         id="path2274" />
      <path
         style="stroke-width:0.824163"
         d="m 39.791474,17.403584 v 15.638178 h 3.631 v 1.728682 h -10.021 v -1.728682 h 4.274 V 19.69949 l -3.984,2.420957 -0.92,-1.512598 5.169,-3.203265 z"
         id="path2272" />
      <path
         id="path2270"
         style="stroke-width:0.799117"
         d="M 25.511719,20 C 23.711476,20 22.34354,20.746432 21.40625,22.238281 20.46896,23.73013 20,25.877713 20,28.681641 c 0,2.81298 0.46896,4.968493 1.40625,6.46875 0.936643,1.491203 2.30458,2.238281 4.105469,2.238281 1.800889,0 3.170132,-0.747078 4.107422,-2.238281 0.937289,-1.500257 1.40625,-3.656417 1.40625,-6.46875 0,-2.804575 -0.468961,-4.951511 -1.40625,-6.44336 C 28.681851,20.746432 27.312608,20 25.511719,20 Z m 0,1.650391 c 0.986416,0 1.733437,0.364288 2.238281,1.089843 l -5.148438,10.34375 c -0.284418,-1.059232 -0.425781,-2.527023 -0.425781,-4.402343 0,-4.687655 1.111652,-7.03125 3.335938,-7.03125 z m 2.910156,2.605468 c 0.293469,1.043713 0.439453,2.518128 0.439453,4.425782 0,4.695413 -1.116921,7.042968 -3.349609,7.042968 -0.480927,0 -0.904972,-0.08449 -1.271485,-0.255859 -0.358109,-0.179126 -0.671854,-0.451702 -0.941406,-0.818359 z"
         transform="matrix(1.0313425,0,0,1.0313425,-3.5003764,-3.5003764)" />
    </g>
    <path
       style="-inkscape-stroke:none"
       d="m 75.714,71.306 -7.342,8.063 36.61,33.316 a 5.454,5.454 0 0 0 7.703,-0.36 5.454,5.454 0 0 0 -0.36,-7.703 z"
       sodipodi:nodetypes="cccccc"
       color="#000000"
       fill="#6272a4"
       id="path122" />
    <g
       stroke-linecap="round"
       stroke-linejoin="round"
       id="g120">
      <circle
         cx="47.409"
         cy="51.757999"
         r="33.562"
         fill="#f8f8f2"
         fill-opacity="0.5"
         stroke="#44475a"
         stroke-width="6.293"
         id="circle116" />
    </g>
  </g>
</svg>
