<svg width="64" height="64" viewBox="0 0 64 64" fill="none" xmlns="http://www.w3.org/2000/svg">
<g opacity="0.4">
<path opacity="0.4" d="M58 56.5H51.0263V63H58V56.5Z" fill="url(#paint0_radial)"/>
<path opacity="0.4" d="M5.00001 63H11.9737V56.5H5.00001V63Z" fill="url(#paint1_radial)"/>
<path opacity="0.4" d="M51.0263 56.5H11.9737V63H51.0263V56.5Z" fill="url(#paint2_linear)"/>
</g>
<path d="M50 46C50 44.8954 50.8954 44 52 44H53C54.1046 44 55 44.8954 55 46V56C55 57.1046 54.1046 58 53 58H52C50.8954 58 50 57.1046 50 56V46Z" fill="black" fill-opacity="0.15"/>
<path d="M53 43.5H52C50.6193 43.5 49.5 44.6193 49.5 46V56C49.5 57.3807 50.6193 58.5 52 58.5H53C54.3807 58.5 55.5 57.3807 55.5 56V46C55.5 44.6193 54.3807 43.5 53 43.5Z" stroke="black" stroke-opacity="0.07"/>
<path d="M50 46C50 44.8954 50.8954 44 52 44H53C54.1046 44 55 44.8954 55 46V55C55 56.1046 54.1046 57 53 57H52C50.8954 57 50 56.1046 50 55V46Z" fill="#A56DE2"/>
<path d="M52 44.5H53C53.8284 44.5 54.5 45.1716 54.5 46V55C54.5 55.8284 53.8284 56.5 53 56.5H52C51.1716 56.5 50.5 55.8284 50.5 55V46C50.5 45.1716 51.1716 44.5 52 44.5Z" stroke="#5B3C7C" stroke-opacity="0.5"/>
<path opacity="0.5" d="M52 44.5H53C53.2761 44.5 53.5 44.7239 53.5 45V55C53.5 55.2761 53.2761 55.5 53 55.5H52C51.7239 55.5 51.5 55.2761 51.5 55V45C51.5 44.7239 51.7239 44.5 52 44.5Z" stroke="url(#paint3_linear)" stroke-linecap="round" stroke-linejoin="round"/>
<path d="M50 35C50 33.8954 50.8954 33 52 33H52.5C53.6046 33 54.5 33.8954 54.5 35V44.5C54.5 45.6046 53.6046 46.5 52.5 46.5H52C50.8954 46.5 50 45.6046 50 44.5V35Z" fill="black" fill-opacity="0.15"/>
<path d="M50 35C50 33.8954 50.8954 33 52 33H53C54.1046 33 55 33.8954 55 35V44C55 45.1046 54.1046 46 53 46H52C50.8954 46 50 45.1046 50 44V35Z" fill="black" fill-opacity="0.15"/>
<path d="M53 32.5H52C50.6193 32.5 49.5 33.6193 49.5 35V44C49.5 45.3807 50.6193 46.5 52 46.5H53C54.3807 46.5 55.5 45.3807 55.5 44V35C55.5 33.6193 54.3807 32.5 53 32.5Z" stroke="black" stroke-opacity="0.07"/>
<path d="M50 34C50 32.8954 50.8954 32 52 32H53C54.1046 32 55 32.8954 55 34V44C55 45.1046 54.1046 46 53 46H52C50.8954 46 50 45.1046 50 44V34Z" fill="#F0DB4F"/>
<path d="M52 32.5H53C53.8284 32.5 54.5 33.1716 54.5 34V44C54.5 44.8284 53.8284 45.5 53 45.5H52C51.1716 45.5 50.5 44.8284 50.5 44V34C50.5 33.1716 51.1716 32.5 52 32.5Z" stroke="#A59738" stroke-opacity="0.5"/>
<path opacity="0.5" d="M52 33.5H53C53.2761 33.5 53.5 33.7239 53.5 34V44C53.5 44.2761 53.2761 44.5 53 44.5H52C51.7239 44.5 51.5 44.2761 51.5 44V34C51.5 33.7239 51.7239 33.5 52 33.5Z" stroke="url(#paint4_linear)" stroke-linecap="round" stroke-linejoin="round"/>
<path d="M50 23.5C50 22.3954 50.8954 21.5 52 21.5H52.5C53.6046 21.5 54.5 22.3954 54.5 23.5V33C54.5 34.1046 53.6046 35 52.5 35H52C50.8954 35 50 34.1046 50 33V23.5Z" fill="black" fill-opacity="0.15"/>
<path d="M50 23C50 21.8954 50.8954 21 52 21H53C54.1046 21 55 21.8954 55 23V33C55 34.1046 54.1046 35 53 35H52C50.8954 35 50 34.1046 50 33V23Z" fill="black" fill-opacity="0.15"/>
<path d="M53 20.5H52C50.6193 20.5 49.5 21.6193 49.5 23V33C49.5 34.3807 50.6193 35.5 52 35.5H53C54.3807 35.5 55.5 34.3807 55.5 33V23C55.5 21.6193 54.3807 20.5 53 20.5Z" stroke="black" stroke-opacity="0.07"/>
<path d="M50 23C50 21.8954 50.8954 21 52 21H53C54.1046 21 55 21.8954 55 23V32C55 33.1046 54.1046 34 53 34H52C50.8954 34 50 33.1046 50 32V23Z" fill="#4F98D2"/>
<path d="M52 21.5H53C53.8284 21.5 54.5 22.1716 54.5 23V32C54.5 32.8284 53.8284 33.5 53 33.5H52C51.1716 33.5 50.5 32.8284 50.5 32V23C50.5 22.1716 51.1716 21.5 52 21.5Z" stroke="#2E597C" stroke-opacity="0.5"/>
<path opacity="0.5" d="M51.5 21.5H53.5V32C53.5 32.2761 53.2761 32.5 53 32.5H52C51.7239 32.5 51.5 32.2761 51.5 32V21.5Z" stroke="url(#paint5_linear)" stroke-linecap="round" stroke-linejoin="round"/>
<path d="M50 10H52.5C53.6046 10 54.5 10.8954 54.5 12V21.5C54.5 22.6046 53.6046 23.5 52.5 23.5H50V10Z" fill="black" fill-opacity="0.15"/>
<path d="M50 10H53C54.1046 10 55 10.8954 55 12V21C55 22.1046 54.1046 23 53 23H50V10Z" fill="black" fill-opacity="0.15"/>
<path d="M50 9.5H49.5V10V23V23.5H50H53C54.3807 23.5 55.5 22.3807 55.5 21V12C55.5 10.6193 54.3807 9.5 53 9.5H50Z" stroke="black" stroke-opacity="0.07"/>
<path d="M50 9H53C54.1046 9 55 9.89543 55 11V21C55 22.1046 54.1046 23 53 23H50V9Z" fill="#403757"/>
<path d="M50.5 9.5H53C53.8284 9.5 54.5 10.1716 54.5 11V21C54.5 21.8284 53.8284 22.5 53 22.5H50.5V9.5Z" stroke="#231E2F" stroke-opacity="0.5"/>
<path opacity="0.5" d="M51.5 10.5H53C53.2761 10.5 53.5 10.7239 53.5 11V21C53.5 21.2761 53.2761 21.5 53 21.5H51.5V10.5Z" stroke="url(#paint6_linear)" stroke-linecap="round" stroke-linejoin="round"/>
<mask id="path-27-outside-1" maskUnits="userSpaceOnUse" x="12" y="2" width="38" height="6" fill="black">
<rect fill="white" x="12" y="2" width="38" height="6"/>
<path d="M49 7C48.661 5.80873 47.7078 4.13614 47.5205 3H13L14.1911 6.60546"/>
</mask>
<path d="M49 7C48.661 5.80873 47.7078 4.13614 47.5205 3H13L14.1911 6.60546" fill="url(#paint7_linear)"/>
<path d="M47.5205 3L48.5072 2.83741C48.4277 2.35439 48.0101 2 47.5205 2V3ZM13 3V2C12.679 2 12.3776 2.15407 12.1895 2.4142C12.0015 2.67434 11.9498 3.00891 12.0505 3.31368L13 3ZM49.9618 6.72632C49.7698 6.05138 49.4093 5.25418 49.1224 4.58519C48.8088 3.85392 48.5776 3.26457 48.5072 2.83741L46.5339 3.16259C46.6507 3.87157 46.9897 4.68658 47.2843 5.37347C47.6056 6.12262 47.8913 6.75735 48.0382 7.27368L49.9618 6.72632ZM47.5205 2H13V4H47.5205V2ZM12.0505 3.31368L13.2416 6.91915L15.1406 6.29178L13.9495 2.68632L12.0505 3.31368Z" fill="url(#paint8_linear)" mask="url(#path-27-outside-1)"/>
<mask id="path-29-inside-2" fill="white">
<path d="M15 8H10.2C9.51498 8 9 7.9365 9 7.85366V3.41064C9 2.35471 9.29723 2 10.1755 2H15"/>
</mask>
<path d="M15 8H10.2C9.51498 8 9 7.9365 9 7.85366V3.41064C9 2.35471 9.29723 2 10.1755 2H15" fill="url(#paint9_linear)"/>
<path d="M15 9C15.5523 9 16 8.55228 16 8C16 7.44772 15.5523 7 15 7V9ZM15 3C15.5523 3 16 2.55228 16 2C16 1.44772 15.5523 1 15 1V3ZM15 7H10.2V9H15V7ZM10.2 7C9.88238 7 9.6256 6.985 9.46457 6.9653C9.37673 6.95455 9.35598 6.94692 9.37714 6.95324C9.38034 6.95419 9.45749 6.97558 9.55454 7.03641C9.6043 7.0676 9.70071 7.13455 9.79241 7.25131C9.89063 7.37638 10 7.58257 10 7.85366H8C8 8.41627 8.42119 8.68643 8.49239 8.73106C8.62028 8.81122 8.74302 8.85115 8.8052 8.86971C8.94432 8.91123 9.09513 8.93501 9.22167 8.95049C9.48939 8.98325 9.8326 9 10.2 9V7ZM10 7.85366V3.41064H8V7.85366H10ZM10 3.41064C10 3.18636 10.0165 3.0485 10.035 2.96782C10.0525 2.89122 10.0627 2.90624 10.0263 2.94993C10.0081 2.9717 9.9862 2.99095 9.96406 3.0054C9.94291 3.0192 9.93013 3.02304 9.93355 3.02192C9.94733 3.01739 10.0147 3 10.1755 3V1C9.63897 1 8.96314 1.10221 8.49051 1.66876C8.06412 2.17987 8 2.85151 8 3.41064H10ZM10.1755 3H15V1H10.1755V3Z" fill="url(#paint10_linear)" mask="url(#path-29-inside-2)"/>
<path opacity="0.9" d="M10.8859 6.5H49.1141C49.2679 6.5 49.5 6.6648 49.5 7.00935V59.9907C49.5 60.3352 49.2679 60.5 49.1141 60.5H10.8859C10.7321 60.5 10.5 60.3352 10.5 59.9907V7.00935C10.5 6.6648 10.7321 6.5 10.8859 6.5Z" fill="url(#paint11_radial)" stroke="#0E141F"/>
<path d="M15 6C15 6 15 44.2439 15 61H10.0482C9.3632 61 9 60.5583 9 59.7989V6H15Z" fill="url(#paint12_linear)"/>
<path d="M14.5 6.5V6.51706V6.54645V6.57662V6.60757V6.63929V6.67179V6.70505V6.73907V6.77386V6.80941V6.84572V6.88279V6.9206V6.95917V6.99848V7.03854V7.07934V7.12088V7.16315V7.20616V7.2499V7.29437V7.33956V7.38548V7.43212V7.47947V7.52754V7.57633V7.62582V7.67602V7.72693V7.77853V7.83084V7.88384V7.93753V7.99192V8.047V8.10276V8.1592V8.21633V8.27413V8.3326V8.39175V8.45157V8.51206V8.57321V8.63502V8.69749V8.76062V8.8244V8.88884V8.95392V9.01964V9.08601V9.15302V9.22067V9.28895V9.35787V9.42741V9.49759V9.56838V9.6398V9.71184V9.78449V9.85776V9.93163V10.0061V10.0812V10.1569V10.2332V10.3101V10.3876V10.4657V10.5443V10.6236V10.7034V10.7839V10.8649V10.9464V11.0286V11.1113V11.1946V11.2784V11.3629V11.4478V11.5334V11.6195V11.7061V11.7933V11.8811V11.9693V12.0582V12.1475V12.2374V12.3279V12.4188V12.5103V12.6023V12.6949V12.7879V12.8815V12.9756V13.0702V13.1653V13.261V13.3571V13.4537V13.5509V13.6485V13.7466V13.8452V13.9443V14.0439V14.1439V14.2445V14.3455V14.447V14.549V14.6514V14.7543V14.8577V14.9615V15.0658V15.1706V15.2758V15.3814V15.4875V15.5941V15.701V15.8085V15.9163V16.0246V16.1334V16.2425V16.3521V16.4621V16.5725V16.6834V16.7947V16.9063V17.0184V17.1309V17.2438V17.3571V17.4709V17.585V17.6995V17.8144V17.9296V18.0453V18.1614V18.2778V18.3946V18.5118V18.6293V18.7473V18.8656V18.9842V19.1033V19.2227V19.3424V19.4625V19.583V19.7038V19.8249V19.9464V20.0682V20.1904V20.3129V20.4357V20.5589V20.6824V20.8062V20.9304V21.0549V21.1796V21.3047V21.4301V21.5559V21.6819V21.8082V21.9349V22.0618V22.189V22.3165V22.4443V22.5724V22.7008V22.8295V22.9584V23.0877V23.2171V23.3469V23.477V23.6073V23.7378V23.8687V23.9997V24.1311V24.2627V24.3945V24.5266V24.659V24.7916V24.9244V25.0574V25.1907V25.3243V25.458V25.592V25.7262V25.8606V25.9953V26.1301V26.2652V26.4005V26.536V26.6717V26.8076V26.9437V27.08V27.2165V27.3532V27.49V27.6271V27.7643V27.9018V28.0394V28.1771V28.3151V28.4532V28.5915V28.73V28.8686V29.0073V29.1463V29.2854V29.4246V29.564V29.7035V29.8432V29.983V30.123V30.2631V30.4033V30.5437V30.6841V30.8248V30.9655V31.1063V31.2473V31.3884V31.5296V31.6709V31.8123V31.9538V32.0954V32.2371V32.3789V32.5208V32.6628V32.8049V32.9471V33.0893V33.2316V33.3741V33.5165V33.6591V33.8017V33.9444V34.0871V34.2299V34.3728V34.5157V34.6587V34.8017V34.9448V35.0879V35.2311V35.3743V35.5175V35.6608V35.8041V35.9474V36.0908V36.2342V36.3776V36.521V36.6644V36.8079V36.9513V37.0948V37.2383V37.3817V37.5252V37.6687V37.8121V37.9556V38.099V38.2425V38.3859V38.5293V38.6726V38.816V38.9593V39.1026V39.2459V39.3891V39.5323V39.6754V39.8185V39.9616V40.1046V40.2475V40.3904V40.5333V40.6761V40.8188V40.9614V41.104V41.2466V41.389V41.5314V41.6737V41.8159V41.958V42.1001V42.242V42.3839V42.5257V42.6674V42.8089V42.9504V43.0918V43.233V43.3742V43.5152V43.6562V43.797V43.9376V44.0782V44.2186V44.359V44.4991V44.6392V44.7791V44.9188V45.0585V45.198V45.3373V45.4765V45.6155V45.7544V45.8931V46.0316V46.17V46.3083V46.4463V46.5842V46.7219V46.8595V46.9968V47.134V47.271V47.4078V47.5444V47.6808V47.817V47.9531V48.0889V48.2245V48.3599V48.4951V48.6301V48.7649V48.8995V49.0338V49.1679V49.3018V49.4355V49.5689V49.7022V49.8351V49.9679V50.1004V50.2326V50.3646V50.4964V50.6279V50.7591V50.8901V51.0208V51.1513V51.2815V51.4115V51.5411V51.6705V51.7996V51.9285V52.057V52.1853V52.3133V52.441V52.5684V52.6955V52.8224V52.9489V53.0751V53.201V53.3266V53.4519V53.5769V53.7015V53.8259V53.9499V54.0736V54.197V54.3201V54.4428V54.5652V54.6872V54.8089V54.9303V55.0513V55.172V55.2923V55.4122V55.5319V55.6511V55.77V55.8885V56.0067V56.1245V56.2419V56.359V56.4756V56.5919V56.7078V56.8233V56.9385V57.0532V57.1676V57.2815V57.3951V57.5083V57.621V57.7334V57.8453V57.9568V58.0679V58.1786V58.2889V58.3988V58.5082V58.6172V58.7258V58.8339V58.9416V59.0489V59.1557V59.2621V59.368V59.4735V59.5785V59.6831V59.7872V59.8909V59.9941V60.0968V60.1991V60.3008V60.4022V60.5H10.0482C9.81879 60.5 9.70851 60.4306 9.64648 60.3584C9.57412 60.2742 9.5 60.1065 9.5 59.7989V6.5H14.5Z" stroke="#3D211B" stroke-opacity="0.8"/>
<path opacity="0.5" d="M10.5 7.5H48.5V59.5H10.5V7.5Z" stroke="url(#paint13_linear)" stroke-linecap="round" stroke-linejoin="round"/>
<path d="M24.9652 51.5H27.6188M18 14.5H20.6039H18ZM20.9759 14.5H23.3939H20.9759ZM23.7831 14.5H25.9406H23.7831ZM26.2954 14.5H27.2254H26.2954ZM27.5974 14.5H29.6805H27.5974ZM30.0897 14.5H35.558H30.0897ZM35.93 14.5H40.0963H35.93ZM40.4683 14.5H41.7331H40.4683ZM18 17H22.0375H18ZM22.5073 17H24.4365H22.5073ZM24.7931 17H25.7452H24.7931ZM26.1325 17H27.9096H26.1325ZM28.2816 17H30.1041H28.2816ZM30.4481 17H33.3099H30.4481ZM33.6819 17H37.4572H33.6819ZM18 19.4867H21.4174H18ZM21.7763 19.4867H27.4044H21.7763ZM27.7494 19.4867H30.4789H27.7494ZM30.8287 19.4867H33.3821H30.8287ZM33.7483 19.4867H35.9234H33.7483ZM36.2733 19.4867L39.6942 19.5133L36.2733 19.4867ZM18 22H22.7514H18ZM23.1245 22H28.2599H23.1245ZM28.6147 22H30.6327H28.6147ZM31.0047 22H35.808H31.0047ZM36.1313 22H39.4235H36.1313ZM39.7955 22H41.0984H39.7955ZM41.4704 22H42.1912H41.4704ZM18 24.5H19.7736H18ZM20.3185 24.5H26.8855H20.3185ZM18 38H22.0375H18ZM22.5073 38H24.4365H22.5073ZM24.7931 38H25.7452H24.7931ZM26.1325 38H27.9096H26.1325ZM28.2816 38H30.1041H28.2816ZM30.4481 38H33.3099H30.4481ZM18 43.4591H21.4174H18ZM21.7763 43.4591H27.4044H21.7763ZM27.7494 43.4591H30.4789H27.7494ZM40.1243 43.5409H45.6992H40.1243ZM18 35.5H22.7514H18ZM23.1245 35.5H28.2599H23.1245ZM28.6147 35.5H30.6327H28.6147ZM31.0047 35.5H35.808H31.0047ZM18 30H20.6039H18ZM20.9759 30H23.3939H20.9759ZM23.7831 30H25.9406H23.7831ZM26.2954 30H27.2254H26.2954ZM27.5974 30H29.6805H27.5974ZM30.0897 30H35.558H30.0897ZM35.93 30H40.0963H35.93ZM18 33H22.3854H18ZM22.7303 33H27.387H22.7303ZM27.7418 33H29.5627H27.7418ZM29.9066 33H34.2875H29.9066ZM34.6389 33H39.4235H34.6389ZM18 46H22.098H18ZM22.538 46H24.3447H22.538ZM24.7678 46H25.669H24.7678ZM25.9558 46H27.7347H25.9558ZM27.9709 46H37.3888H27.9709ZM37.8319 46H40.3459H37.8319ZM40.684 46H41.3187H40.684ZM22.6687 49H24.0055H22.6687ZM18 49H22.2773H18ZM24.3474 49H27.4577H24.3474ZM27.7867 49H32.3524H27.7867ZM32.7072 49H35.8045H32.7072ZM36.1163 49H36.7545H36.1163ZM37.1035 49H41.0366H37.1035ZM41.4387 49H43.4978H41.4387ZM22.6687 51.5H24.5562H22.6687ZM18 51.5H22.2773H18Z" stroke="#657B83"/>
<path d="M27.7867 49H32.3524M18 19.4867H21.4174H18ZM41.4704 22H42.1912H41.4704ZM18 38H22.0375H18ZM18 30H20.6039H18ZM27.7418 33H29.5627H27.7418Z" stroke="#D33682"/>
<path d="M35.93 30H40.0963M27.5974 14.5H29.6805H27.5974ZM33.6819 17H37.4572H33.6819ZM30.4481 38H33.3099H30.4481Z" stroke="#268BD2"/>
<path d="M22.6687 51.5H24.5562M18 14.5H20.6039H18ZM31.0047 22H35.808H31.0047ZM26.1325 38H27.9096H26.1325ZM31.0047 35.5H35.808H31.0047ZM20.9759 30H23.3939H20.9759Z" stroke="#859900"/>
<path d="M25.875 23C24.249 23 23.3871 23.2944 22.5703 23.9023C21.761 24.5021 21.375 25.4567 21.375 26.7383V30.5625C21.375 31.3265 21.0961 31.8604 20.6016 32.2383C20.1145 32.608 19.0116 32.8399 18 32.8398V35.1602C19.9932 35.1602 21.375 35.9524 21.375 37.4805V40.9609C21.375 42.3658 21.7432 43.4303 22.5 44.0547C23.2643 44.6873 24.1441 44.9836 25.875 45V42.7656C25.0133 42.7492 24.5697 42.5521 24.1875 42.207C23.8053 41.862 23.625 41.3768 23.625 40.7031V37.0078C23.625 35.3565 22.9503 34.3817 21.2344 34.0859V33.9141C22.9503 33.5937 23.625 32.5841 23.625 30.9492V27.2969C23.625 26.6232 23.8053 26.1728 24.1875 25.8359C24.5771 25.4909 25.0208 25.2755 25.875 25.2344V23ZM37.125 23V25.2344C37.9792 25.2755 38.4229 25.4909 38.8125 25.8359C39.1947 26.1728 39.375 26.6232 39.375 27.2969V30.9492C39.375 32.5841 40.0497 33.5937 41.7656 33.9141V34.0859C40.0497 34.3817 39.375 35.3565 39.375 37.0078V40.7031C39.375 41.3768 39.1947 41.862 38.8125 42.207C38.4303 42.5521 37.9867 42.7492 37.125 42.7656V45C38.8559 44.9836 39.7357 44.6873 40.5 44.0547C41.2568 43.4303 41.625 42.3658 41.625 40.9609V37.4805C41.625 35.9524 43.0068 35.1602 45 35.1602V32.8398C43.9884 32.8399 42.8855 32.608 42.3984 32.2383C41.9039 31.8604 41.625 31.3265 41.625 30.5625V26.7383C41.625 25.4567 41.239 24.5021 40.4297 23.9023C39.6129 23.2944 38.751 23 37.125 23Z" fill="black" fill-opacity="0.6" stroke="black" stroke-opacity="0.15" stroke-width="5"/>
<path d="M25.875 24C24.249 24 23.3871 24.2944 22.5703 24.9023C21.761 25.5021 21.375 26.4567 21.375 27.7383V31.5625C21.375 32.3265 21.0961 32.8604 20.6016 33.2383C20.1145 33.608 19.0116 33.8399 18 33.8398V36.1602C19.9932 36.1602 21.375 36.9524 21.375 38.4805V41.9609C21.375 43.3658 21.7432 44.4303 22.5 45.0547C23.2643 45.6873 24.1441 45.9836 25.875 46V43.7656C25.0133 43.7492 24.5697 43.5521 24.1875 43.207C23.8053 42.862 23.625 42.3768 23.625 41.7031V38.0078C23.625 36.3565 22.9503 35.3817 21.2344 35.0859V34.9141C22.9503 34.5937 23.625 33.5841 23.625 31.9492V28.2969C23.625 27.6232 23.8053 27.1728 24.1875 26.8359C24.5771 26.4909 25.0208 26.2755 25.875 26.2344V24ZM37.125 24V26.2344C37.9792 26.2755 38.4229 26.4909 38.8125 26.8359C39.1947 27.1728 39.375 27.6232 39.375 28.2969V31.9492C39.375 33.5841 40.0497 34.5937 41.7656 34.9141V35.0859C40.0497 35.3817 39.375 36.3565 39.375 38.0078V41.7031C39.375 42.3768 39.1947 42.862 38.8125 43.207C38.4303 43.5521 37.9867 43.7492 37.125 43.7656V46C38.8559 45.9836 39.7357 45.6873 40.5 45.0547C41.2568 44.4303 41.625 43.3658 41.625 41.9609V38.4805C41.625 36.9524 43.0068 36.1602 45 36.1602V33.8398C43.9884 33.8399 42.8855 33.608 42.3984 33.2383C41.9039 32.8604 41.625 32.3265 41.625 31.5625V27.7383C41.625 26.4567 41.239 25.5021 40.4297 24.9023C39.6129 24.2944 38.751 24 37.125 24Z" stroke="black" stroke-opacity="0.07" stroke-width="10"/>
<path d="M25.875 22C24.249 22 23.3871 22.2944 22.5703 22.9023C21.761 23.5021 21.375 24.4567 21.375 25.7383V29.5625C21.375 30.3265 21.0961 30.8604 20.6016 31.2383C20.1145 31.608 19.0116 31.8399 18 31.8398V34.1602C19.9932 34.1602 21.375 34.9524 21.375 36.4805V39.9609C21.375 41.3658 21.7432 42.4303 22.5 43.0547C23.2643 43.6873 24.1441 43.9836 25.875 44V41.7656C25.0133 41.7492 24.5697 41.5521 24.1875 41.207C23.8053 40.862 23.625 40.3768 23.625 39.7031V36.0078C23.625 34.3565 22.9503 33.3817 21.2344 33.0859V32.9141C22.9503 32.5937 23.625 31.5841 23.625 29.9492V26.2969C23.625 25.6232 23.8053 25.1728 24.1875 24.8359C24.5771 24.4909 25.0208 24.2755 25.875 24.2344V22ZM37.125 22V24.2344C37.9792 24.2755 38.4229 24.4909 38.8125 24.8359C39.1947 25.1728 39.375 25.6232 39.375 26.2969V29.9492C39.375 31.5841 40.0497 32.5937 41.7656 32.9141V33.0859C40.0497 33.3817 39.375 34.3565 39.375 36.0078V39.7031C39.375 40.3768 39.1947 40.862 38.8125 41.207C38.4303 41.5521 37.9867 41.7492 37.125 41.7656V44C38.8559 43.9836 39.7357 43.6873 40.5 43.0547C41.2568 42.4303 41.625 41.3658 41.625 39.9609V36.4805C41.625 34.9524 43.0068 34.1602 45 34.1602V31.8398C43.9884 31.8399 42.8855 31.608 42.3984 31.2383C41.9039 30.8604 41.625 30.3265 41.625 29.5625V25.7383C41.625 24.4567 41.239 23.5021 40.4297 22.9023C39.6129 22.2944 38.751 22 37.125 22Z" fill="url(#paint14_linear)"/>
<line x1="10" y1="4.5" x2="48" y2="4.5" stroke="#ABACAE"/>
<defs>
<radialGradient id="paint0_radial" cx="0" cy="0" r="1" gradientUnits="userSpaceOnUse" gradientTransform="translate(51.0165 59.75) scale(6.98688 3.25)">
<stop stop-color="#181818"/>
<stop offset="1" stop-color="#181818" stop-opacity="0"/>
</radialGradient>
<radialGradient id="paint1_radial" cx="0" cy="0" r="1" gradientUnits="userSpaceOnUse" gradientTransform="translate(11.9835 59.75) rotate(180) scale(6.98688 3.25)">
<stop stop-color="#181818"/>
<stop offset="1" stop-color="#181818" stop-opacity="0"/>
</radialGradient>
<linearGradient id="paint2_linear" x1="32.9758" y1="63.0257" x2="32.9758" y2="56.4995" gradientUnits="userSpaceOnUse">
<stop stop-color="#181818" stop-opacity="0"/>
<stop offset="0.5" stop-color="#181818"/>
<stop offset="1" stop-color="#181818" stop-opacity="0"/>
</linearGradient>
<linearGradient id="paint3_linear" x1="52.5" y1="43.8378" x2="52.5" y2="56.1622" gradientUnits="userSpaceOnUse">
<stop stop-color="white"/>
<stop offset="0.0270648" stop-color="white" stop-opacity="0.235294"/>
<stop offset="0.97377" stop-color="white" stop-opacity="0.156863"/>
<stop offset="1" stop-color="white" stop-opacity="0.392157"/>
</linearGradient>
<linearGradient id="paint4_linear" x1="52.5" y1="32.8378" x2="52.5" y2="45.1622" gradientUnits="userSpaceOnUse">
<stop stop-color="white"/>
<stop offset="0.0270648" stop-color="white" stop-opacity="0.235294"/>
<stop offset="0.97377" stop-color="white" stop-opacity="0.156863"/>
<stop offset="1" stop-color="white" stop-opacity="0.392157"/>
</linearGradient>
<linearGradient id="paint5_linear" x1="52.5" y1="20.8378" x2="52.5" y2="33.1622" gradientUnits="userSpaceOnUse">
<stop stop-color="white"/>
<stop offset="0.0270648" stop-color="white" stop-opacity="0.235294"/>
<stop offset="0.97377" stop-color="white" stop-opacity="0.156863"/>
<stop offset="1" stop-color="white" stop-opacity="0.392157"/>
</linearGradient>
<linearGradient id="paint6_linear" x1="52.5" y1="9.83784" x2="52.5" y2="22.1622" gradientUnits="userSpaceOnUse">
<stop stop-color="white"/>
<stop offset="0.0270648" stop-color="white" stop-opacity="0.235294"/>
<stop offset="0.97377" stop-color="white" stop-opacity="0.156863"/>
<stop offset="1" stop-color="white" stop-opacity="0.392157"/>
</linearGradient>
<linearGradient id="paint7_linear" x1="31.9159" y1="3.31733" x2="31.9534" y2="6.56892" gradientUnits="userSpaceOnUse">
<stop stop-color="#F5F5F5"/>
<stop offset="1" stop-color="#E1E1E1"/>
</linearGradient>
<linearGradient id="paint8_linear" x1="8.8948" y1="2.39565" x2="49.7225" y2="2.39565" gradientUnits="userSpaceOnUse">
<stop stop-color="#0E9A83"/>
<stop offset="0.95971" stop-color="#0E9A83"/>
<stop offset="0.963265" stop-color="#C2C2C2"/>
<stop offset="1" stop-color="#C2C2C2"/>
</linearGradient>
<linearGradient id="paint9_linear" x1="13.9849" y1="2.74997" x2="13.9849" y2="5.74999" gradientUnits="userSpaceOnUse">
<stop stop-color="#F5F5F5"/>
<stop offset="1" stop-color="#E1E1E1"/>
</linearGradient>
<linearGradient id="paint10_linear" x1="32.4" y1="8.07692" x2="32.4" y2="1.90754" gradientUnits="userSpaceOnUse">
<stop stop-color="#272727"/>
<stop offset="1" stop-color="#454545"/>
</linearGradient>
<radialGradient id="paint11_radial" cx="0" cy="0" r="1" gradientUnits="userSpaceOnUse" gradientTransform="translate(30.944 -13.1658) rotate(90) scale(149.418 167.837)">
<stop stop-color="#206A7C"/>
<stop offset="0.26238" stop-color="#073642"/>
<stop offset="0.704952" stop-color="#002B36"/>
<stop offset="1" stop-color="#00161C"/>
</radialGradient>
<linearGradient id="paint12_linear" x1="12" y1="6" x2="12" y2="61" gradientUnits="userSpaceOnUse">
<stop stop-color="#8A715E"/>
<stop offset="1" stop-color="#57392D"/>
</linearGradient>
<linearGradient id="paint13_linear" x1="29.5" y1="6.28378" x2="29.5" y2="60.7162" gradientUnits="userSpaceOnUse">
<stop stop-color="white"/>
<stop offset="0.0270648" stop-color="white" stop-opacity="0.235294"/>
<stop offset="0.97377" stop-color="white" stop-opacity="0.156863"/>
<stop offset="1" stop-color="white" stop-opacity="0.392157"/>
</linearGradient>
<linearGradient id="paint14_linear" x1="27.2813" y1="22" x2="20.3379" y2="57.4202" gradientUnits="userSpaceOnUse">
<stop stop-color="#FAFAFA"/>
<stop offset="1" stop-color="#D4D4D4"/>
</linearGradient>
</defs>
</svg>
